<svg id="Layer_1" data-name="Layer 1" xmlns="http://www.w3.org/2000/svg" viewBox="0 0 571.11 1080"><defs><style>.cls-1{fill:#ffcea3;}.cls-2{fill:#da0019;}.cls-3{fill:#ffa68f;}.cls-4{fill:#a0e7fb;}.cls-5{fill:#363d46;}.cls-6{fill:#ff4275;}.cls-7{fill:#da305d;}.cls-8{fill:#fbe252;}.cls-9{fill:#f19f77;}.cls-10{fill:#5b3333;}.cls-11{fill:#cd7f50;}.cls-12{fill:#fff;}.cls-13{fill:#513834;}.cls-14{fill:#101e9b;}</style></defs><title>Game Models</title><path class="cls-1" d="M203.22,227.15s85.84,31.87,133,0-23,71.39-23,71.39-95.18-20.82-96.88-20.82S203.22,227.15,203.22,227.15Z"/><rect x="116.4" y="1014.37" width="27.75" height="10.77" transform="translate(-843.2 689.26) rotate(-63.97)"/><rect x="361.76" y="1017.77" width="10.77" height="34.98" transform="translate(-368.21 219.29) rotate(-22.5)"/><path class="cls-2" d="M197.75,549.2s125,16.31,180.69,0v466l-32.61,13.58S324.1,909.23,327.49,856.25,304.4,648.38,304.4,648.38H272.47L250.05,858.29,146.12,1017.92,119,1003.66s53-136.54,78.12-160.32Z"/><path d="M447,485.92c-33.21-20.13-54.79-52.82-62.41-94.53a182.65,182.65,0,0,1-1.49-57.33l10.63,1.77-5.32-.89,5.32.89c-.16.95-14.93,96.16,58.85,140.88Z"/><path class="cls-3" d="M447.3,478.29s-19.43,4.63-16.57,21.8,13.59,15,13.59,15,2.21,14,22.63,4.57,21.94-34.08,7.63-43S447.3,478.29,447.3,478.29Z"/><path d="M475.05,475.88c6.68,4.15,10.35,11.73,9.82,20.28-.64,10.42-7.2,19.51-17.54,24.29-.43.2-.84.38-1.25.55-7.42,3.21-13.29,3.67-17.47,1.37a10.61,10.61,0,0,1-5-6.33,10.65,10.65,0,0,1-6.59-1.92c-3.66-2.51-6.08-7.18-7.19-13.88-2.13-12.75,7.37-18.9,13.23-21.43a29.38,29.38,0,0,1,3.83-1.36,26.73,26.73,0,0,1,5.42-3.09A23.73,23.73,0,0,1,475.05,475.88Zm-27.54,3.29a25.65,25.65,0,0,0-3.72,1.31c-5.37,2.32-14.08,7.93-12.16,19.46,1,6.17,3.18,10.43,6.39,12.66a8.6,8.6,0,0,0,6.12,1.57.89.89,0,0,1,.69.15.91.91,0,0,1,.38.59,9,9,0,0,0,4.3,5.88c3.87,2.12,9.53,1.49,17.05-2,9.73-4.49,15.9-13,16.5-22.75.48-7.88-2.86-14.84-9-18.63A22,22,0,0,0,453,476a24.65,24.65,0,0,0-5.17,3,.74.74,0,0,1-.21.13Z"/><path d="M440.47,497.18a1,1,0,0,0-.53.64.9.9,0,0,0,.69,1.08c.1,0,10.65,2.45,18,6.07,1.75.87,1.6,1.88,1.33,2.56-1.42,3.57-11.5,8.68-19.84,6.15a.92.92,0,0,0-1.14.61.9.9,0,0,0,.61,1.12c9.13,2.77,20.21-2.54,22.06-7.22.79-2,0-3.76-2.21-4.84-7.52-3.73-17.94-6.12-18.38-6.22A1,1,0,0,0,440.47,497.18Z"/><path class="cls-4" d="M413.18,359.73,392.5,363l-10.81,1.71-13.35,2.11s-7.08,92.07-7.08,120.39S380.15,551,380.15,551l-1.72.35c-6.41,1.33-30.29,6-60.13,9.31-5.76.64-11.76,1.23-17.89,1.72a3.81,3.81,0,0,1-.59,0,4,4,0,0,1-.58,0l-1.08.08c-22.36,1.74-46.41,2.29-68.19,0q-4.16-.43-8.21-1a165.13,165.13,0,0,1-16.89-3.27c-.31-.07-.65-.15-1-.25-.8-.18-1.6-.4-2.38-.63-1.29-.35-2.56-.73-3.8-1.13-.58-.17-1.16-.37-1.73-.55,0,0,0-1.06.08-3,0-2.34.14-6,.17-10.63.1-10.32.07-25.62-.56-43,0-.4,0-.8-.05-1.18s0-.78,0-1.18c-.22-5.65-.5-11.51-.88-17.47Q210,472.85,229,459.31c1.86-1.32,3.75-2.69,5.66-4.14,5.66-4.2,11.54-8.89,17.66-14,25.61-21.45,48.68-45.38,59-56.38-.28-.56-.53-1.11-.75-1.63a32.33,32.33,0,0,1-1.36-3.83,24.94,24.94,0,0,1-2.88-4.95c-21.52,23.75-50.62,51.69-77.9,71.95q-2.84,2.1-5.65,4.09a189.2,189.2,0,0,1-28.8,17.29c-.85-11-2-22.19-3.59-32.87-.34-2.38-.71-4.72-1.09-7-3.57-21.44-8.91-40.36-16.81-51.56L130,367.15l-4.42-.94-19.25-4.12,16.53-101.51s7.07-30.7,26-35.41c7.69-1.91,18.88-3.84,29.45-5.44,15.45-2.34,29.58-4,29.58-4h2.36a85.78,85.78,0,0,0,7.61,16,92.9,92.9,0,0,0,10.63,14.52c12.17,13.57,31.28,26.05,59.66,23.77,40.77-3.27,47.74-27.94,48.16-42.87a48.58,48.58,0,0,0-1-11.43s61.39,4.72,66.11,66.09S413.18,359.73,413.18,359.73Z"/><path d="M193.89,467.71c.32,3.86.58,7.69.82,11.5q-13.59,5.67-24.21,5.68c-7.55,0-14-2.18-19.23-6.5-1-.78-1.86-1.58-2.76-2.41a65.67,65.67,0,0,1-5.5-5.71c-31.69-36.94-18.15-101-17.47-104.06v0l4.42,1,6.09,1.35c-.13.63-12,56.84,11.91,90.59a57.26,57.26,0,0,0,4.84,6,53.68,53.68,0,0,0,5.31,5c3.36,2.76,7.58,4,12.49,4C177.26,474.09,185.17,471.78,193.89,467.71Z"/><path d="M316.88,378.66c-.07.07-1.6,1.78-4.31,4.7-.21.24-.44.47-.68.73s-.43.47-.66.7c-.28-.56-.53-1.11-.75-1.63a32.33,32.33,0,0,1-1.36-3.83,24.94,24.94,0,0,1-2.88-4.95l.65-.73c.24-.25.47-.5.68-.75l1.27-1.41Z"/><path class="cls-3" d="M310,378.92s4.64,19.43,21.81,16.58,15-13.59,15-13.59,14-2.21,4.57-22.63-34.08-21.95-43-7.63S310,378.92,310,378.92Z"/><path d="M352.67,360.14c-.16-.4-.35-.81-.55-1.24-4.78-10.35-13.87-16.9-24.3-17.54-8.54-.54-16.13,3.14-20.28,9.81A23.74,23.74,0,0,0,306,373.91a5.11,5.11,0,0,0,.21.47,24.94,24.94,0,0,0,2.88,4.95,32.33,32.33,0,0,0,1.36,3.83c.22.52.47,1.07.75,1.63,2.9,5.8,9,13.54,20.68,11.6,6.69-1.12,11.36-3.54,13.88-7.2a10.45,10.45,0,0,0,1.3-2.52s0,0,0,0a9.65,9.65,0,0,0,.56-2.63,2,2,0,0,0,0-.36,9.15,9.15,0,0,0,0-1l.1,0a10.46,10.46,0,0,0,6.23-4.95C356.34,373.43,355.88,367.57,352.67,360.14Zm-4.83,20.5a9.24,9.24,0,0,1-1.26.38.89.89,0,0,0-.55.32l0,.05a.92.92,0,0,0-.14.7,6.43,6.43,0,0,1,.05,1.34s0,.08,0,.12a8.1,8.1,0,0,1-.54,2.57v0a9.17,9.17,0,0,1-1.08,2.07c-2.23,3.21-6.48,5.37-12.66,6.38-10.88,1.83-16.5-5.84-19-11.23-.16-.31-.3-.63-.43-.93a29.72,29.72,0,0,1-1.31-3.72.3.3,0,0,0-.05-.15.72.72,0,0,0-.12-.21,25.46,25.46,0,0,1-3-5.17c0-.08-.08-.18-.12-.28a21.92,21.92,0,0,1,1.52-20.76c3.78-6.12,10.76-9.46,18.63-9,9.75.59,18.26,6.76,22.76,16.49,3.47,7.53,4.1,13.19,2,17.06A8.8,8.8,0,0,1,347.84,380.64Z"/><path d="M328.85,385.76a.92.92,0,0,0,.64.52.89.89,0,0,0,1.08-.68c0-.11,2.44-10.65,6.07-18,.87-1.76,1.87-1.6,2.56-1.33,3.57,1.41,8.68,11.5,6.15,19.84a.9.9,0,0,0,1.73.53c2.77-9.13-2.54-20.21-7.22-22.06-2-.79-3.76,0-4.84,2.21-3.73,7.52-6.12,17.94-6.22,18.38A1,1,0,0,0,328.85,385.76Z"/><path class="cls-5" d="M105.74,1013.14s24.12,20.57,43.11,18.33l25.2,42.29L86.19,1036.4Z"/><path class="cls-5" d="M346.5,1040.59l3.71,26.55,84.59-11.83-42.07-24.72S361.26,1048,346.5,1040.59Z"/><path class="cls-6" d="M247.51,497.56c0-.4,0-.78-.1-1.18s0-.78-.1-1.18c-1.41-15.15-6-28.93-12.69-40-1.91,1.45-3.8,2.82-5.66,4.14,5.91,10,9.91,22.4,11.24,36.09.05.38.08.78.1,1.18s.08.78.1,1.18c.2,2.53.3,5.08.3,7.67a99.52,99.52,0,0,1-2.39,21.93,82,82,0,0,1-9.89,25.1s0,0,0,0c-1,1.65-2.06,3.22-3.16,4.72a53.13,53.13,0,0,1-3.49,4.3c-6.82,7.68-15.08,12.76-24.08,14.19a35.45,35.45,0,0,1-5.27.41,33,33,0,0,1-7.82-.93c-9.52-2.27-18.11-8.62-24.9-17.79-1.1-1.49-2.18-3.07-3.19-4.73-7.69-12.51-12.39-29.09-12.39-47.23,0-1.66,0-3.3.13-4.93a8.82,8.82,0,0,1,.07-1.16c0-.42,0-.82.05-1.2A96.93,96.93,0,0,1,148.51,476a79.33,79.33,0,0,1,4.29-10.91c8.34-17.52,22-29.27,37.5-30.23.7-.07,1.4-.08,2.11-.08,11.46,0,22,5.86,30.28,15.66q2.82-2,5.65-4.09c-9.68-11.62-22.22-18.65-35.93-18.65-1.08,0-2.14.05-3.2.13-16.88,1.37-31.75,13.36-41.25,31.28a87.94,87.94,0,0,0-5,11.18,101.91,101.91,0,0,0-5.76,28.07c0,.4-.05.8-.07,1.2s-.05.8-.06,1.18c-.07,1.56-.1,3.14-.1,4.71,0,17.71,4.23,34.06,11.36,47.15q1.35,2.46,2.82,4.76c7.15,11.18,16.56,19.44,27.21,23.34a40.51,40.51,0,0,0,14,2.52,39.68,39.68,0,0,0,5.25-.34c12.41-1.65,23.64-9.07,32.31-20.34q2-2.53,3.77-5.38c.81-1.28,1.61-2.62,2.38-4,.13-.25.26-.5.41-.77a95.3,95.3,0,0,0,10.32-32.62,110.24,110.24,0,0,0,.94-14.34C247.79,502.78,247.69,500.15,247.51,497.56Z"/><path d="M311.23,384.79c-10.27,11-33.34,34.93-59,56.38-6.12,5.11-12,9.8-17.66,14-1.91,1.45-3.8,2.82-5.66,4.14q-19,13.54-34.25,19.9c-.24-3.81-.5-7.64-.82-11.5a189.2,189.2,0,0,0,28.8-17.29q2.82-2,5.65-4.09c27.28-20.26,56.38-48.2,77.9-71.95a24.94,24.94,0,0,0,2.88,4.95,32.33,32.33,0,0,0,1.36,3.83C310.7,383.68,311,384.23,311.23,384.79Z"/><path class="cls-7" d="M326.49,630.45c-.83,13.8-12.73,24.33-26.55,24.47-42.62.44-175.56,1.64-197.62-.14a6.94,6.94,0,0,1-4.56-2.31s208.53,1,213.2-3.64-9.24-113.54-36.39-154.4l36,.15s13.17,113,15.72,130.46A26.15,26.15,0,0,1,326.49,630.45Z"/><path class="cls-6" d="M311,648.83c-4.67,4.68-213.2,3.64-213.2,3.64-18.41-19.29,4.56-151.94,4.56-151.94L274,495.62C301.12,536.48,315.64,644.16,311,648.83Z"/><path class="cls-7" d="M149.33,653.77c-23.18,0-42.3-.07-51.57-.12h-.51l-.34-.36c-18.61-19.5,3.3-147.52,4.25-153l.16-.95,173.27-5,.36.55c15.75,23.69,25.94,66.93,30.61,90.6,5.6,28.37,9.44,60.89,6.24,64.1h0C308.29,653.18,213.35,653.77,149.33,653.77Zm-51-2.48c82,.4,205.36-.15,211.85-3.33,3.94-6.49-10.11-110.24-36.79-151.14l-170,4.86C101.32,513.58,81.88,632.29,98.29,651.29Z"/><path class="cls-6" d="M311,648.83c-4.67,4.68-213.2,3.64-213.2,3.64L274,495.62C301.12,536.48,315.64,644.16,311,648.83Z"/><path class="cls-7" d="M174.7,557.43c-19.71,0-37-.14-44.47-.58-23.79-1.37-30.41-52.58-30.68-54.75l4.69-.58c1.71,13.75,9.76,49.67,26.26,50.62,20.18,1.17,115.84.18,130.53,0,1.83-8.62,9.49-45,10.59-56.76l4.7.44c-1.27,13.58-10.67,57.3-11.07,59.15l-.39,1.85-1.89,0C260,556.89,212.81,557.43,174.7,557.43Z"/><rect class="cls-8" x="179.94" y="542.03" width="24.93" height="28.9"/><rect class="cls-9" x="255.13" y="210.98" width="30.69" height="34.47" transform="translate(-12.32 15.46) rotate(-3.2)"/><path class="cls-1" d="M207.84,171.47s17.57,61.75,73.66,48.72,44.19-117.28,44.19-117.28H215.21v62.61Z"/><path class="cls-10" d="M237.45,115.23s22.31-4,34,1.06v-3s-19.1-7.42-34.68-3Z"/><path class="cls-10" d="M296.51,117.36a52.81,52.81,0,0,1,30.07-1.07l-.29-5.9s-18.94,0-30,3.89Z"/><path class="cls-10" d="M242.12,124.16s19.33-5.1,22.52,5.1S249.77,139,242.12,124.16Z"/><path class="cls-10" d="M322,124.16s-19.34-5.1-22.53,5.1S314.31,139,322,124.16Z"/><path class="cls-11" d="M283.64,161.26c-8.41-1.85-4.69-22.66-4.69-22.66L288.77,153C291.36,156.83,288.14,162.25,283.64,161.26Z"/><path class="cls-12" d="M254,173.66h48.24s1.06,20.82-24.12,23.59S254,173.66,254,173.66Z"/><path class="cls-1" d="M332.49,118.77s12.18,8.33,10.77,16.35-10.77,16.52-10.77,16.52Z"/><path class="cls-13" d="M176.11,271.18l7.94-193.77s5.56-62.89,81-70.82,69.18,123,69.18,123l.13,37.67-16.56-.57,7.93-63.74H215.21l11.46,101.25,1.85,44.93Z"/><path class="cls-1" d="M200.48,110.39,205,159.85s-24.36-7.65-26.35-27.48S200.48,110.39,200.48,110.39Z"/><path class="cls-14" d="M221.28,162l4.35,41.8s27.61,20.05,46.81,20.29,43.36-30,43.36-30,13.24-26.22,3.4-32.39-39.41-7.47-39.41-7.47Z"/></svg>