<svg id="Layer_1" data-name="Layer 1" xmlns="http://www.w3.org/2000/svg" viewBox="0 0 571.11 1080"><defs><style>.cls-1{fill:#ffcea3;}.cls-2{fill:#da0019;}.cls-3{fill:#ffa68f;}.cls-4{fill:#a0e7fb;}.cls-5{fill:#363d46;}.cls-6{fill:#ff4275;}.cls-7{fill:#da305d;}.cls-8{fill:#fbe252;}.cls-9{fill:#f19f77;}.cls-10{fill:#5b3333;}.cls-11{fill:#cd7f50;}.cls-12{fill:#fff;}.cls-13{fill:#513834;}</style></defs><title>Game Models</title><path class="cls-1" d="M203.4,229.05s85.65,31.8,132.72,0-22.9,71.23-22.9,71.23-95-20.78-96.67-20.78S203.4,229.05,203.4,229.05Z"/><rect x="116.77" y="1014.56" width="27.69" height="10.75" transform="translate(-843.17 689.67) rotate(-63.97)"/><rect x="361.6" y="1017.95" width="10.75" height="34.9" transform="translate(-368.28 219.23) rotate(-22.5)"/><path class="cls-2" d="M197.93,550.4s124.73,16.27,180.31,0v465L345.7,1029S324,909.65,327.4,856.78s-23-207.42-23-207.42H272.5L250.13,858.81l-103.71,159.3-27.11-14.24s52.87-136.24,77.95-160Z"/><path d="M446.64,487.25c-33.13-20.08-54.67-52.7-62.27-94.32a182.25,182.25,0,0,1-1.49-57.21l10.6,1.77-5.3-.89,5.3.88c-.15,1-14.9,96,58.73,140.58Z"/><path class="cls-3" d="M447,479.63s-19.38,4.63-16.53,21.76S444,516.33,444,516.33s2.21,14,22.58,4.56,21.9-34,7.62-42.89S447,479.63,447,479.63Z"/><path d="M474.64,477.23c6.67,4.14,10.33,11.71,9.8,20.24-.64,10.4-7.18,19.46-17.51,24.24-.42.19-.83.38-1.24.55-7.4,3.2-13.26,3.65-17.43,1.36a10.57,10.57,0,0,1-5-6.31,10.71,10.71,0,0,1-6.58-1.92c-3.65-2.5-6.06-7.16-7.17-13.85-2.12-12.73,7.36-18.86,13.2-21.38a29.44,29.44,0,0,1,3.82-1.36,26.5,26.5,0,0,1,5.41-3.08A23.65,23.65,0,0,1,474.64,477.23Zm-27.48,3.28a27.23,27.23,0,0,0-3.72,1.31c-5.35,2.32-14,7.91-12.13,19.42,1,6.16,3.17,10.41,6.38,12.63a8.56,8.56,0,0,0,6.1,1.57.92.92,0,0,1,1.08.74,8.93,8.93,0,0,0,4.29,5.87c3.86,2.11,9.51,1.48,17-2,9.71-4.49,15.87-13,16.47-22.71.48-7.86-2.86-14.81-8.95-18.59a21.93,21.93,0,0,0-21-1.39,24.38,24.38,0,0,0-5.16,3,1.07,1.07,0,0,1-.21.13Z"/><path d="M440.13,498.49a.91.91,0,0,0,.16,1.72c.11,0,10.63,2.43,17.94,6.05,1.75.87,1.59,1.87,1.32,2.55-1.41,3.57-11.47,8.67-19.8,6.14a.9.9,0,1,0-.52,1.73c9.11,2.77,20.16-2.53,22-7.2.79-2,0-3.75-2.21-4.84-7.5-3.72-17.9-6.1-18.34-6.2A1,1,0,0,0,440.13,498.49Z"/><path class="cls-4" d="M412.91,361.33l-20.64,3.27-10.79,1.7-13.32,2.11s-7.06,91.87-7.06,120.13,18.84,63.6,18.84,63.6-.58.13-1.71.35c-6.39,1.32-30.23,6-60,9.3-5.75.63-11.73,1.22-17.85,1.7a3,3,0,0,1-.59,0,3,3,0,0,1-.58.05l-1.08.09c-22.31,1.74-46.31,2.28-68,0-2.77-.3-5.5-.63-8.19-1a163.84,163.84,0,0,1-16.85-3.26c-.32-.07-.65-.15-1-.25-.79-.19-1.59-.4-2.37-.63-1.29-.35-2.55-.73-3.79-1.13-.58-.17-1.16-.36-1.73-.55,0,0,0-1.06.09-3,.05-2.34.13-6,.16-10.61.1-10.29.07-25.56-.56-42.9,0-.39,0-.79,0-1.17s0-.78-.05-1.18c-.22-5.64-.5-11.49-.88-17.44q15.24-6.33,34.18-19.85c1.85-1.31,3.74-2.69,5.65-4.13,5.65-4.19,11.52-8.87,17.62-14,25.56-21.4,48.58-45.28,58.82-56.26-.28-.56-.53-1.11-.74-1.62a32.33,32.33,0,0,1-1.36-3.83A24.38,24.38,0,0,1,306.2,376c-21.48,23.7-50.52,51.58-77.73,71.8q-2.83,2.08-5.64,4.08a189.18,189.18,0,0,1-28.74,17.25c-.85-11-2-22.14-3.58-32.8-.35-2.37-.71-4.7-1.09-7-3.57-21.4-8.89-40.27-16.78-51.45l-42.35-9.08-4.4-.94-19.21-4.11L123.17,262.4s7.06-30.63,25.9-35.34c7.68-1.9,18.85-3.83,29.39-5.42,15.41-2.34,29.52-4,29.52-4h2.35a86.35,86.35,0,0,0,7.59,16,92.67,92.67,0,0,0,10.61,14.48c12.15,13.54,31.21,26,59.54,23.72,40.67-3.27,47.63-27.88,48.05-42.78a48.35,48.35,0,0,0-.95-11.4s61.26,4.7,66,66S412.91,361.33,412.91,361.33Z"/><path d="M194.09,469.08q.47,5.78.81,11.47-13.54,5.67-24.15,5.67-11.31,0-19.19-6.48c-.95-.78-1.86-1.57-2.75-2.4a64,64,0,0,1-5.49-5.7c-31.62-36.87-18.11-100.76-17.43-103.84v0l4.4,1,6.09,1.34c-.14.63-12,56.72,11.88,90.4a58,58,0,0,0,4.82,6,54.72,54.72,0,0,0,5.31,5c3.35,2.75,7.56,4,12.46,4C177.5,475.45,185.39,473.14,194.09,469.08Z"/><path d="M316.81,380.23c-.07.06-1.59,1.77-4.29,4.69-.22.23-.45.46-.68.73s-.44.46-.67.69c-.28-.56-.53-1.11-.74-1.62a32.33,32.33,0,0,1-1.36-3.83A24.38,24.38,0,0,1,306.2,376c.22-.25.43-.5.65-.73l.68-.74c.43-.48.84-1,1.26-1.41Z"/><path class="cls-3" d="M309.9,380.49s4.63,19.38,21.76,16.53,14.94-13.55,14.94-13.55,14-2.21,4.55-22.58-34-21.9-42.88-7.62S309.9,380.49,309.9,380.49Z"/><path d="M352.53,361.75c-.17-.4-.35-.82-.55-1.25-4.77-10.32-13.84-16.85-24.25-17.5-8.52-.53-16.09,3.13-20.24,9.8C302,361.66,303.63,370,306,375.49c.07.16.14.31.22.46a24.38,24.38,0,0,0,2.87,4.94,32.33,32.33,0,0,0,1.36,3.83c.21.51.46,1.06.74,1.62,2.9,5.79,9,13.51,20.64,11.57,6.68-1.11,11.33-3.53,13.85-7.17a10.83,10.83,0,0,0,1.3-2.52.06.06,0,0,1,0,0,9.56,9.56,0,0,0,.57-2.62c0-.11,0-.23,0-.36a9,9,0,0,0,0-1l.1,0a10.44,10.44,0,0,0,6.22-4.94C356.19,375,355.73,369.16,352.53,361.75ZM347.7,382.2a10.72,10.72,0,0,1-1.26.38.84.84,0,0,0-.54.32l0,.05a.9.9,0,0,0-.14.69,6.57,6.57,0,0,1,.05,1.34s0,.09,0,.12a8,8,0,0,1-.54,2.57v0a8.78,8.78,0,0,1-1.08,2.07c-2.22,3.2-6.46,5.35-12.63,6.36-10.86,1.83-16.46-5.83-19-11.2-.17-.32-.3-.63-.44-.93a27.54,27.54,0,0,1-1.3-3.71.24.24,0,0,0-.06-.15.91.91,0,0,0-.11-.22,24.39,24.39,0,0,1-3-5.15c0-.08-.08-.18-.11-.28a21.86,21.86,0,0,1,1.5-20.72c3.78-6.1,10.75-9.43,18.6-8.95,9.73.59,18.22,6.74,22.71,16.46,3.46,7.5,4.09,13.16,2,17A8.77,8.77,0,0,1,347.7,382.2Z"/><path d="M328.76,387.31a.9.9,0,0,0,1.71-.16c0-.11,2.44-10.63,6.06-17.93.87-1.76,1.87-1.6,2.55-1.33,3.57,1.41,8.66,11.47,6.14,19.8a.9.9,0,0,0,1.73.53c2.76-9.12-2.54-20.17-7.2-22-2-.79-3.76,0-4.84,2.21-3.72,7.5-6.1,17.9-6.2,18.34A.89.89,0,0,0,328.76,387.31Z"/><path class="cls-5" d="M106.13,1013.34s24.07,20.52,43,18.29l25.14,42.19-87.67-37.27Z"/><path class="cls-5" d="M346.37,1040.72l3.7,26.49,84.41-11.8-42-24.66S361.1,1048.08,346.37,1040.72Z"/><path class="cls-6" d="M247.59,498.87c0-.4-.05-.78-.1-1.18a11.74,11.74,0,0,0-.1-1.18c-1.41-15.11-5.95-28.87-12.66-39.94-1.91,1.44-3.8,2.82-5.65,4.13,5.9,10,9.89,22.36,11.22,36,0,.39.08.78.1,1.18s.08.78.1,1.18q.3,3.78.3,7.65a99.07,99.07,0,0,1-2.39,21.88,82.06,82.06,0,0,1-9.86,25l0,0c-1,1.64-2.05,3.22-3.15,4.71a55.08,55.08,0,0,1-3.48,4.29c-6.81,7.66-15.05,12.73-24,14.16a35.32,35.32,0,0,1-5.26.41,33.29,33.29,0,0,1-7.8-.93c-9.5-2.27-18.07-8.6-24.85-17.75-1.09-1.49-2.17-3.07-3.18-4.72-7.67-12.48-12.36-29-12.36-47.13,0-1.65,0-3.29.13-4.92a8.83,8.83,0,0,1,.06-1.16c0-.41,0-.81,0-1.19a97,97,0,0,1,4.15-22.11,78.52,78.52,0,0,1,4.27-10.89C161.4,449,175,437.24,190.51,436.28c.7-.06,1.39-.08,2.1-.08,11.44,0,21.95,5.85,30.22,15.63q2.8-2,5.64-4.08c-9.67-11.6-22.18-18.61-35.86-18.61-1.07,0-2.13.05-3.19.13-16.84,1.36-31.68,13.33-41.16,31.21a87.62,87.62,0,0,0-4.94,11.16,101.47,101.47,0,0,0-5.75,28c0,.4,0,.79-.07,1.19s-.05.8-.06,1.18c-.07,1.56-.1,3.13-.1,4.7,0,17.67,4.22,34,11.34,47,.89,1.64,1.84,3.24,2.81,4.76,7.13,11.16,16.53,19.39,27.15,23.29a40.35,40.35,0,0,0,14,2.52,39.42,39.42,0,0,0,5.24-.35c12.38-1.64,23.59-9.05,32.24-20.29,1.31-1.69,2.57-3.48,3.76-5.37.81-1.27,1.61-2.62,2.37-4l.42-.76A94.89,94.89,0,0,0,246.93,521a109.78,109.78,0,0,0,.94-14.31C247.87,504.07,247.77,501.45,247.59,498.87Z"/><path d="M311.17,386.34c-10.24,11-33.26,34.86-58.82,56.26-6.1,5.1-12,9.78-17.62,14-1.91,1.44-3.8,2.82-5.65,4.13q-18.92,13.51-34.18,19.85-.35-5.69-.81-11.47a189.18,189.18,0,0,0,28.74-17.25q2.8-2,5.64-4.08c27.21-20.22,56.25-48.1,77.73-71.8a24.38,24.38,0,0,0,2.87,4.94,32.33,32.33,0,0,0,1.36,3.83C310.64,385.23,310.89,385.78,311.17,386.34Z"/><path class="cls-7" d="M326.4,631.47c-.82,13.77-12.7,24.28-26.49,24.42-42.53.44-175.18,1.64-197.2-.14a6.89,6.89,0,0,1-4.54-2.31s208.07,1,212.74-3.63-9.22-113.29-36.31-154.07l35.88.15s13.15,112.79,15.69,130.18A25.41,25.41,0,0,1,326.4,631.47Z"/><path class="cls-6" d="M310.91,649.81c-4.67,4.67-212.74,3.63-212.74,3.63-18.38-19.24,4.54-151.61,4.54-151.61L274,496.93C301.08,537.71,315.57,645.15,310.91,649.81Z"/><path class="cls-7" d="M149.62,654.74c-23.12,0-42.2-.07-51.46-.12h-.5l-.34-.36c-18.58-19.46,3.29-147.2,4.23-152.63l.17-.95,172.89-4.94.37.54c15.7,23.64,25.87,66.79,30.54,90.41,5.58,28.3,9.42,60.76,6.22,64h0C308.24,654.15,213.51,654.74,149.62,654.74Zm-50.93-2.47c81.85.4,204.92-.16,211.4-3.32,3.92-6.48-10.09-110-36.72-150.82L103.71,503C101.72,514.85,82.32,633.31,98.69,652.27Z"/><path class="cls-6" d="M310.91,649.81c-4.67,4.67-212.74,3.63-212.74,3.63L274,496.93C301.08,537.71,315.57,645.15,310.91,649.81Z"/><path class="cls-7" d="M174.94,558.61c-19.67,0-36.92-.15-44.38-.58-23.73-1.36-30.34-52.46-30.61-54.64l4.68-.58c1.71,13.73,9.74,49.57,26.21,50.52,20.13,1.16,115.58.18,130.24,0,1.83-8.61,9.47-44.91,10.57-56.64l4.69.44c-1.27,13.55-10.64,57.18-11,59l-.4,1.83L263,558C260.05,558.07,213,558.61,174.94,558.61Z"/><rect class="cls-8" x="180.17" y="543.24" width="24.88" height="28.83"/><rect class="cls-9" x="255.2" y="212.91" width="30.62" height="34.4" transform="translate(-12.43 15.47) rotate(-3.2)"/><path class="cls-1" d="M208,173.48s17.53,61.62,73.5,48.62,44.09-117,44.09-117H215.36v62.47Z"/><path class="cls-10" d="M237.55,117.37s22.26-4,33.92,1.06v-3s-19.06-7.4-34.61-3Z"/><path class="cls-10" d="M296.49,119.49a52.63,52.63,0,0,1,30-1.06l-.28-5.9s-18.91,0-30,3.88Z"/><path class="cls-10" d="M242.21,126.27s19.3-5.09,22.48,5.09S249.85,141.11,242.21,126.27Z"/><path class="cls-10" d="M321.88,126.27s-19.29-5.09-22.48,5.09S314.25,141.11,321.88,126.27Z"/><path class="cls-11" d="M283.65,163.29c-8.4-1.84-4.69-22.6-4.69-22.6l9.8,14.39C291.35,158.87,288.13,164.28,283.65,163.29Z"/><path class="cls-12" d="M254.08,175.67h48.13s1.06,20.78-24.06,23.53S254.08,175.67,254.08,175.67Z"/><path class="cls-1" d="M332.39,120.9s12.15,8.31,10.74,16.31-10.74,16.48-10.74,16.48Z"/><path class="cls-13" d="M176.35,273l7.91-193.35S189.81,16.87,265.06,9s69,122.69,69,122.69l.13,37.59-16.52-.57,7.91-63.6H215.36l11.43,101,1.86,44.83Z"/><path class="cls-1" d="M200.66,112.53l4.52,49.36s-24.31-7.63-26.29-27.42S200.66,112.53,200.66,112.53Z"/></svg>