<svg id="Layer_1" data-name="Layer 1" xmlns="http://www.w3.org/2000/svg" viewBox="0 0 571.11 587.69"><defs><style>.cls-1{fill:#ffa68f;}.cls-2{fill:#101e9b;}.cls-3{fill:none;stroke:#000;stroke-miterlimit:10;stroke-width:11.97px;}.cls-4{fill:#1b89ce;}.cls-5{fill:#363d46;}.cls-6{fill:#343d44;}.cls-7{fill:#4a1100;}</style></defs><title>Game Models</title><path class="cls-1" d="M259.72,206.54s17.52-25.37,24.46-19.94S303,212.93,303,212.93"/><path class="cls-2" d="M202.53,214.17s64.06-40,81.55-39.19,75.44,37.39,72.17,48.82"/><path class="cls-3" d="M381.66,206.54s.33,68.12-12.74,97.82"/><path class="cls-4" d="M355.57,186.6c5.16-90.55,69.83-28.48,69.83-28.48-11.45-43.26-60.38-31-66.32-20.8C356.31,142.05,355.52,163.33,355.57,186.6Z"/><path class="cls-5" d="M355.57,186.6c0,23.51.85,49.06,1.32,61.58a7.57,7.57,0,0,0,8.12,7.25l43.08-3.19a11.09,11.09,0,0,0,8.82-5.49c4.85-8.4,12.48-28.7,10.83-72.05a75.72,75.72,0,0,0-2.34-16.58S360.73,96.05,355.57,186.6Z"/><path class="cls-5" d="M355.57,186.6l69.83-28.48S360.73,96.05,355.57,186.6Z"/><path class="cls-3" d="M91.93,377.65s-38.18-56.89-22.07-92.56"/><path class="cls-3" d="M489.53,387.57s43.36-58.85,18.41-109.35"/><path class="cls-1" d="M513,293.08s28.56,1.24,31.37-23.51-12.82-25.94-12.82-25.94,2.45-20.15-29.37-15.18-43.59,38.3-27.38,56.17S513,293.08,513,293.08Z"/><path d="M473.87,285.5c-7.57-8.33-9.64-20.21-5.56-31.77,5-14.11,17.57-24,33.69-26.56l1.93-.27c11.47-1.5,19.74.18,24.59,5a15.23,15.23,0,0,1,4.39,10.67,15.34,15.34,0,0,1,8.32,5.23c4,4.89,5.54,12.27,4.45,21.94-2.09,18.39-17.58,23.12-26.63,24.3a42.63,42.63,0,0,1-5.8.37,38.87,38.87,0,0,1-8.68,2.13C496.11,297.62,483.93,296.6,473.87,285.5Zm39.2,6.28a37.26,37.26,0,0,0,5.65-.34c8.29-1.08,22.49-5.38,24.37-22,1-8.91-.28-15.62-3.82-19.94a12.27,12.27,0,0,0-7.81-4.57,1.29,1.29,0,0,1-.9-.47,1.26,1.26,0,0,1-.28-1,12.92,12.92,0,0,0-3.61-9.79c-4.5-4.42-12.54-5.78-24.26-3.95-15.16,2.37-27,11.66-31.65,24.85-3.76,10.65-1.88,21.55,5,29.17C485.1,294,496.4,295,504.23,293.94a34.48,34.48,0,0,0,8.27-2.06,2,2,0,0,1,.35-.09Z"/><path class="cls-1" d="M67.1,308.21S97,319,108.19,293.69s-5-31.78-5-31.78,9.29-20.57-26.11-25.86-59,26.15-47.72,50.5S67.1,308.21,67.1,308.21Z"/><path d="M28.08,287.16c-5.26-11.35-3.52-24.65,4.66-35.55,10-13.31,26.62-19.66,44.57-17l2.14.35c12.66,2.22,20.88,6.75,24.43,13.46A16.89,16.89,0,0,1,105,261.2a17.09,17.09,0,0,1,7.09,8.32c2.67,6.54,1.81,14.86-2.57,24.76-8.32,18.81-26.33,18.69-36.32,16.93a45.21,45.21,0,0,1-6.28-1.54,42.67,42.67,0,0,1-9.92-.62C47.65,307.41,35.07,302.29,28.08,287.16Zm39.51,19.69a40,40,0,0,0,6.1,1.52c9.16,1.6,25.66,1.76,33.18-15.26,4-9.11,4.89-16.66,2.56-22.43a13.6,13.6,0,0,0-6.76-7.43,1.48,1.48,0,0,1-.8-.81,1.41,1.41,0,0,1,0-1.12,14.34,14.34,0,0,0-.58-11.58c-3.3-6.2-11.38-10.31-24.43-12.26C60,235,44.37,240.89,35.05,253.33c-7.52,10.06-9.16,22.25-4.36,32.62,6.48,14,18.15,18.74,26.8,20.26a38.89,38.89,0,0,0,9.46.56,1.82,1.82,0,0,1,.4,0A1.05,1.05,0,0,1,67.59,306.85Z"/><path class="cls-6" d="M418.66,460.71S551.14,437,482.41,340.37,401,448.13,401,448.13"/><path class="cls-6" d="M153.38,460.71S20.91,437,89.64,340.37,171,448.13,171,448.13"/><path class="cls-3" d="M218.65,275.65s-22.38-73.43-10-125.43"/><path class="cls-1" d="M441.2,333.88s76.63-15.41,26.5,48.79-86,32.6-86,32.6"/><path class="cls-1" d="M139,324s-54.12,20.29-27.06,67.64,74.41,27.06,74.41,27.06"/><path class="cls-7" d="M111.91,358.66S152.5,552.06,281,552.06,450.13,385.52,450.13,385.52s40.58-43,33.82-59.1-27.06-32.23-27.06-48.35,13.53-43,13.53-43-47.35,0-87.94-16.11-236.75-48.35-277.33,80.58C105.15,299.56,71.32,331.8,111.91,358.66Z"/><path class="cls-4" d="M256.94,102.27c18.35-88.81-60.14-45.51-60.14-45.51,22.21-38.85,66.34-14.43,69.45-3C267.7,59,263,79.8,256.94,102.27Z"/><path class="cls-5" d="M256.94,102.27c-5.95,22.24-13.16,46.16-16.92,58.4a8.33,8.33,0,0,1-10.7,5.41L190,152.41a12.65,12.65,0,0,1-8.15-9c-2.37-9.94-3.85-31.43,8.41-71.22a75.86,75.86,0,0,1,6.53-15.41S275.29,13.46,256.94,102.27Z"/><path class="cls-5" d="M256.94,102.27,196.8,56.76S275.29,13.46,256.94,102.27Z"/></svg>