<svg id="Layer_1" data-name="Layer 1" xmlns="http://www.w3.org/2000/svg" viewBox="0 0 571.11 587.69"><defs><style>.cls-1{fill:#ffa68f;}.cls-2{fill:none;stroke:#000;stroke-miterlimit:10;stroke-width:12.43px;}.cls-3{fill:#1b89ce;}.cls-4{fill:#363d46;}.cls-5{fill:#343d44;}.cls-6{fill:#4a1100;}</style></defs><title>Game Models</title><path class="cls-1" d="M258.73,203.19s18.19-26.34,25.4-20.7,19.5,27.34,19.5,27.34"/><path class="cls-2" d="M385.35,203.19s.34,70.73-13.23,101.58"/><path class="cls-3" d="M358.25,182.49c5.36-94,72.51-29.57,72.51-29.57-11.89-44.92-62.69-32.22-68.86-21.6C359,136.23,358.21,158.32,358.25,182.49Z"/><path class="cls-4" d="M358.25,182.49c0,24.41.88,50.94,1.38,63.94a7.84,7.84,0,0,0,8.42,7.53l44.73-3.32a11.52,11.52,0,0,0,9.16-5.7c5.05-8.71,13-29.8,11.25-74.81a77.93,77.93,0,0,0-2.43-17.21S363.61,88.47,358.25,182.49Z"/><path class="cls-4" d="M358.25,182.49l72.51-29.57S363.61,88.47,358.25,182.49Z"/><path class="cls-2" d="M84.51,380.87s-39.65-59.08-22.92-96.12"/><path class="cls-2" d="M497.35,391.16s45-61.1,19.12-113.54"/><path class="cls-1" d="M521.74,293.05s29.66,1.29,32.57-24.41S541,241.7,541,241.7s2.54-20.92-30.49-15.75-45.26,39.76-28.43,58.32S521.74,293.05,521.74,293.05Z"/><path d="M481.09,285.18c-7.86-8.65-10-21-5.77-33,5.17-14.64,18.24-24.95,35-27.58l2-.28c11.92-1.55,20.5.19,25.54,5.18a15.76,15.76,0,0,1,4.55,11.07A15.92,15.92,0,0,1,551,246c4.2,5.09,5.76,12.75,4.62,22.78-2.16,19.1-18.25,24-27.64,25.23a42.22,42.22,0,0,1-6,.39,39.77,39.77,0,0,1-9,2.21C504.19,297.76,491.54,296.71,481.09,285.18Zm40.7,6.52a37.88,37.88,0,0,0,5.87-.35c8.61-1.13,23.35-5.59,25.31-22.86,1-9.25-.29-16.21-4-20.7a12.78,12.78,0,0,0-8.11-4.74,1.34,1.34,0,0,1-1.23-1.5,13.32,13.32,0,0,0-3.75-10.16c-4.67-4.6-13-6-25.19-4.11-15.74,2.46-28,12.11-32.86,25.8-3.9,11.06-1.95,22.38,5.22,30.29,9.68,10.67,21.4,11.64,29.53,10.57a36.62,36.62,0,0,0,8.6-2.13,1.4,1.4,0,0,1,.35-.1Z"/><path class="cls-1" d="M58.72,308.76s31,11.23,42.67-15.07-5.17-33-5.17-33,9.65-21.35-27.12-26.85S7.87,261,19.56,286.27,58.72,308.76,58.72,308.76Z"/><path d="M18.2,286.91c-5.45-11.79-3.64-25.6,4.85-36.92,10.34-13.82,27.64-20.42,46.27-17.64.77.12,1.51.24,2.22.37,13.16,2.3,21.69,7,25.38,14A17.56,17.56,0,0,1,98.07,260a17.74,17.74,0,0,1,7.36,8.64c2.77,6.78,1.88,15.43-2.67,25.7-8.64,19.54-27.33,19.41-37.71,17.59a47,47,0,0,1-6.53-1.6,44.16,44.16,0,0,1-10.29-.65C38.53,307.93,25.46,302.61,18.2,286.91Zm41,20.44a41.82,41.82,0,0,0,6.34,1.57c9.51,1.67,26.64,1.83,34.45-15.84,4.18-9.46,5.08-17.3,2.66-23.29a14.15,14.15,0,0,0-7-7.72,1.57,1.57,0,0,1-.83-.83,1.53,1.53,0,0,1,0-1.17,14.87,14.87,0,0,0-.61-12c-3.42-6.42-11.81-10.7-25.36-12.72-17.52-2.62-33.76,3.54-43.44,16.46-7.81,10.44-9.5,23.1-4.52,33.87,6.72,14.53,18.84,19.45,27.83,21a40.45,40.45,0,0,0,9.82.59,1.41,1.41,0,0,1,.41,0Z"/><path class="cls-5" d="M423.77,467.1S561.32,442.47,490,342.16s-84.52,111.89-84.52,111.89"/><path class="cls-5" d="M148.32,467.1S10.76,442.47,82.13,342.16s84.52,111.89,84.52,111.89"/><path class="cls-2" d="M216.08,275s-23.23-76.24-10.34-130.24"/><path class="cls-1" d="M447.17,335.41s79.56-16,27.51,50.67-89.33,33.85-89.33,33.85"/><path class="cls-1" d="M133.35,325.18s-56.19,21.07-28.1,70.24,77.26,28.09,77.26,28.09"/><path class="cls-6" d="M105.25,361.14S147.39,562,280.84,562,456.44,389,456.44,389s42.14-44.63,35.12-61.37-28.1-33.47-28.1-50.2,14.05-44.63,14.05-44.63-49.17,0-91.31-16.73-245.83-50.21-288,83.67C98.23,299.78,63.11,333.25,105.25,361.14Z"/><path class="cls-3" d="M255.84,94.93c19-92.23-62.44-47.26-62.44-47.26,23.06-40.34,68.88-15,72.1-3.12C267,50,262.11,71.59,255.84,94.93Z"/><path class="cls-4" d="M255.84,94.93c-6.17,23.09-13.66,47.93-17.57,60.63a8.64,8.64,0,0,1-11.11,5.62L186.35,147a13.13,13.13,0,0,1-8.46-9.37c-2.47-10.32-4-32.63,8.72-73.95a78.52,78.52,0,0,1,6.79-16S274.89,2.7,255.84,94.93Z"/><path class="cls-4" d="M255.84,94.93,193.4,47.67S274.89,2.7,255.84,94.93Z"/></svg>