<svg id="Layer_1" data-name="Layer 1" xmlns="http://www.w3.org/2000/svg" viewBox="0 0 571.11 1080"><defs><style>.cls-1{fill:#1b89ce;}.cls-2{fill:#ffa68f;}.cls-3{fill:#343d44;}.cls-4{fill:#4a1100;}.cls-5{fill:#cd7f50;}.cls-6{fill:#fffdfb;}.cls-7{fill:#363d46;}.cls-8{fill:#158ecc;}</style></defs><title>Game Models</title><path d="M214.46,1020.45a3.45,3.45,0,0,1-3.41-2.9c-16.45-102.5,7.64-285,7.89-286.84a3.49,3.49,0,0,1,3.89-3,3.44,3.44,0,0,1,3,3.88c-.24,1.82-24.2,183.34-7.91,284.83a3.45,3.45,0,0,1-2.86,4A3.6,3.6,0,0,1,214.46,1020.45Z"/><path d="M427.21,998.37a3.47,3.47,0,0,1-3.44-3.11C418.34,942,357.88,715,357.27,712.74A3.46,3.46,0,1,1,364,711c2.49,9.35,61.22,229.76,66.71,283.6a3.46,3.46,0,0,1-3.1,3.79Z"/><path class="cls-1" d="M167.5,796.16c7.91,2,32.49,10.1,90.7,1.39,3.78-.57,7.53-1.22,11.18-1.95l22.16-77.47a1.12,1.12,0,0,1,1.07-.83,1.18,1.18,0,0,1,1.12.76L319,788.29c8.7-2.76,69.07-22.13,100.92-38.63-2.11-9.47-21-94.21-31.55-122.87L182.59,635.6,179.37,664a1.58,1.58,0,0,1-.11.37C178.86,665.19,172.34,750.66,167.5,796.16Z"/><path d="M85.81,603.3l-7.76-.83C91.93,473.32,123.61,452.2,125,451.36l4.18,6.59C128.83,458.15,99.13,479.4,85.81,603.3Z"/><path d="M482,559c-13-123.94-42.61-145.27-42.91-145.47l4.2-6.58c1.34.84,33,22.05,46.47,151.24Z"/><polyline class="cls-2" points="252.2 230.48 248.28 240.23 258.01 261.71 285.31 267.6 316.54 257.89 310.74 224.71"/><path class="cls-3" d="M250.25,229.5s20.4,55.64,62.42,5.95l82.68,46.66a51.75,51.75,0,0,1,17.91,16.77c15.86,24.24,54.49,84.75,72.78,126.06l-66.39,42.83-33.11-43,1.66,202.91s-52.76,59.43-206.82,12.39l-7.57-166.83-15.65,33.15L70.39,486.78S111.6,315.15,156.52,287.9,250.25,229.5,250.25,229.5Z"/><path class="cls-4" d="M221.06,177.76l-7.69-83.91s64.38,6,121-33C350,49.18,346.16,14.05,346.16,14.05l-39-.05S207.69-29.07,170.48,70.38C148.91,146.44,221.06,177.76,221.06,177.76Z"/><path class="cls-4" d="M347.91,152.58S353.86,84.3,330.49,55l-5.86,5.85Z"/><path class="cls-2" d="M219.08,197.27s23.34,50.76,70.17,45c25-3.09,41.17-13.45,50.75-22.42A34.69,34.69,0,0,0,350.81,192l-2.9-41.39s-13.54-80-17.43-89.78c0,0-37.12,33.12-117.11,33l7.69,82s-17.49-46.85-39-21.52S219.08,197.27,219.08,197.27Z"/><path class="cls-4" d="M240.64,125.11s9.77-11.69,27.33-7.77v-7.8s-21.46-2-33.18,7.76Z"/><path class="cls-4" d="M307,107.65s3.91-7.8,25.37-5.82V94s-21.45-2-29.27,7.77Z"/><ellipse class="cls-4" cx="258.17" cy="143.67" rx="7.32" ry="12.67" transform="matrix(0.94, -0.34, 0.34, 0.94, -33.43, 96.14)"/><ellipse class="cls-4" cx="320.63" cy="130.1" rx="7.32" ry="12.67" transform="matrix(0.99, -0.15, 0.15, 0.99, -15.54, 48.13)"/><path class="cls-5" d="M291.31,164.2s15.6,5.88,19.52-5.82C310.83,158.38,316.66,175.94,291.31,164.2Z"/><path class="cls-6" d="M273.73,183.69s33.16,3.95,52.68-7.73c0,0,9.73,19.52-13.7,33.15S273.73,183.69,273.73,183.69Z"/><path class="cls-2" d="M85.76,601.32s28.12-4.89,34.06,19.26-9.37,27.33-9.37,27.33,5,19.63-27.13,18.77S35.26,634.34,49,614.57,85.76,601.32,85.76,601.32Z"/><path d="M77,599a38.58,38.58,0,0,1,8.86,1,42.22,42.22,0,0,1,5.8-.37c9.11,0,25,2.71,29.46,20.65,2.32,9.43,1.78,16.93-1.6,22.29a15.36,15.36,0,0,1-7.56,6.25,15.19,15.19,0,0,1-3,11.11c-4.19,5.38-12.17,8.1-23.71,8.08l-2,0c-16.28-.44-30-8.66-36.75-22-5.52-10.92-5-23,1.44-32.16C56.52,601.55,68.45,599,77,599Zm8.8,3.62a1.34,1.34,0,0,1-.35,0,35.15,35.15,0,0,0-8.46-1c-7.89,0-19,2.36-26.86,13.72-5.86,8.42-6.33,19.45-1.25,29.52C55.14,657.29,68,665,83.35,665.39c11.84.31,19.63-2.06,23.51-7a12.84,12.84,0,0,0,2.33-10.15,1.3,1.3,0,0,1,1-1.58,12.25,12.25,0,0,0,7.14-5.52c3-4.74,3.38-11.54,1.24-20.23-4-16.22-18.59-18.67-26.95-18.68a38.68,38.68,0,0,0-5.63.38A.82.82,0,0,1,85.76,602.61Z"/><path d="M105.4,622.27a1.31,1.31,0,0,1,1,.53,1.3,1.3,0,0,1-.29,1.81c-.12.1-12.6,9.22-20.16,18.12-1.82,2.13-1,3.36-.31,4.11,3.88,3.89,20,4.9,29.53-3.14a1.3,1.3,0,1,1,1.67,2c-10.43,8.79-28,8.07-33,3-2.17-2.17-2.11-4.94.16-7.61,7.77-9.14,20.1-18.16,20.62-18.53A1.28,1.28,0,0,1,105.4,622.27Z"/><path class="cls-2" d="M485.43,559s-28.11-5-34.12,19.17,9.3,27.35,9.3,27.35-5.05,19.62,27.08,18.86,48.15-32.21,34.44-52S485.43,559,485.43,559Z"/><path d="M523.19,571.58c6.4,9.23,6.9,21.26,1.34,32.17-6.76,13.31-20.52,21.49-36.81,21.88-.67,0-1.31,0-1.94,0-11.55,0-19.52-2.76-23.69-8.14a15.2,15.2,0,0,1-2.95-11.13,15.37,15.37,0,0,1-7.55-6.27c-3.36-5.37-3.88-12.87-1.53-22.29,4.46-17.93,20.41-20.59,29.52-20.57a40.84,40.84,0,0,1,5.79.39,38.26,38.26,0,0,1,8.87-1C502.75,556.68,514.68,559.28,523.19,571.58Zm-38-11.34a36.78,36.78,0,0,0-5.63-.4c-8.36,0-23,2.39-27,18.6-2.17,8.68-1.77,15.49,1.18,20.24a12.2,12.2,0,0,0,7.13,5.53,1.35,1.35,0,0,1,.83.59,1.3,1.3,0,0,1,.15,1,12.86,12.86,0,0,0,2.3,10.15c3.87,5,11.65,7.37,23.49,7.09,15.31-.37,28.23-8,34.57-20.46,5.1-10.05,4.67-21.09-1.17-29.52-7.88-11.39-18.93-13.79-26.82-13.8a35.56,35.56,0,0,0-8.46,1,1,1,0,0,1-.35,0Z"/><path d="M465.73,579.86a1.31,1.31,0,0,0-1.05.53,1.29,1.29,0,0,0,.28,1.81c.12.1,12.58,9.26,20.12,18.18,1.8,2.13,1,3.36.29,4.1-3.89,3.89-20,4.85-29.52-3.21a1.29,1.29,0,1,0-1.68,2c10.41,8.83,27.95,8.15,33,3.08,2.17-2.17,2.12-4.94-.14-7.62-7.74-9.16-20.05-18.21-20.57-18.59A1.28,1.28,0,0,0,465.73,579.86Z"/><path class="cls-7" d="M411.11,979.9l-.08,56.58,110,.16s10.32-46.81-27.79-48.82-57.17-.08-57.17-.08Z"/><path class="cls-8" d="M411,1036.48s87.15-2.34,110-25.46c0,0,3.23,15.87-.69,25.62Z"/><path class="cls-8" d="M254.9,1069.43v5.85l-83.9-.12v-5.85S225.64,1071.34,254.9,1069.43Z"/><path class="cls-7" d="M254.93,1053l0,16.39c-29.26,1.91-83.89-.12-83.89-.12l0-23.41,4.59-3.28a21.62,21.62,0,0,0,9.1-17.6l0-10.32,57.55.08v7.61a21.58,21.58,0,0,0,6.32,15.32A21.67,21.67,0,0,1,254.93,1053Z"/></svg>