<svg id="Layer_1" data-name="Layer 1" xmlns="http://www.w3.org/2000/svg" viewBox="0 0 571.11 1080"><defs><style>.cls-1{fill:#ffa68f;}.cls-2{fill:#da0019;}.cls-3{fill:#343d44;}.cls-4{fill:#363d46;}.cls-5{fill:#101e9b;}.cls-6{fill:#4a1100;}.cls-7{fill:#fff;}.cls-8{opacity:0.42;}</style></defs><title>Game Models</title><path d="M481.21,635.79l-7.54-.3c4.85-121.78-20.55-144.8-20.81-145l4.88-5.75C458.9,485.71,486.2,510.38,481.21,635.79Z"/><path class="cls-1" d="M477,635.94s-26.19-8.64-35.29,13.6S446.8,677,446.8,677s-7.55,18.06,23.28,21.78,50.5-24.12,40.14-45S477,635.94,477,635.94Z"/><path d="M511.34,653.24c4.84,9.72,3.65,21.29-3.17,31-8.32,11.78-22.61,17.7-38.24,15.82l-1.86-.25c-11-1.62-18.28-5.35-21.52-11.08a14.65,14.65,0,0,1-1.28-11,14.79,14.79,0,0,1-6.35-7c-2.47-5.61-1.93-12.85,1.62-21.54,6.76-16.52,22.38-16.85,31.09-15.57a38.76,38.76,0,0,1,5.48,1.18,36.87,36.87,0,0,1,8.62.29C493.86,636.16,504.91,640.29,511.34,653.24Zm-34.75-16.11a36.08,36.08,0,0,0-5.33-1.16c-8-1.17-22.29-.9-28.39,14-3.28,8-3.84,14.57-1.68,19.51a11.78,11.78,0,0,0,6.05,6.28,1.27,1.27,0,0,1,.72,1.66,12.4,12.4,0,0,0,.79,10c3,5.29,10.12,8.66,21.48,10,14.69,1.77,28.11-3.75,35.89-14.77,6.28-8.91,7.4-19.52,3-28.4-6-12-16.19-15.8-23.73-16.91a34.11,34.11,0,0,0-8.22-.26,1,1,0,0,1-.35,0Z"/><path d="M455.25,653.19a1.27,1.27,0,0,0-1.08.36,1.24,1.24,0,0,0,0,1.77c.1.11,10.74,10.6,16.71,20.17,1.43,2.29.53,3.36-.29,4-4.25,3.17-19.8,1.86-27.78-7.17A1.25,1.25,0,1,0,441,674c8.72,9.88,25.59,11.67,31.15,7.52,2.38-1.77,2.71-4.44.92-7.3-6.13-9.84-16.64-20.2-17.09-20.64A1.25,1.25,0,0,0,455.25,653.19Z"/><path class="cls-1" d="M90,580.29s29.59-6.9,37.37,18.39-8.3,29.61-8.3,29.61,6.51,20.56-27.69,21.6-53-31.44-39.6-53.29S90,580.29,90,580.29Z"/><path d="M80.47,578.36a40.68,40.68,0,0,1,9.48.52,45.14,45.14,0,0,1,6.14-.76c9.68-.54,26.78,1.37,32.56,20.16,3,9.88,2.92,17.88-.34,23.78a16.35,16.35,0,0,1-7.66,7.1,16.18,16.18,0,0,1-2.5,12c-4.12,6-12.43,9.34-24.7,10q-1,.06-2.07.09C74.05,651.79,59,643.9,51,630.14c-6.54-11.27-6.7-24.08-.43-34.26C58.9,582.31,71.43,578.86,80.47,578.36ZM90,581.67a1.5,1.5,0,0,1-.37,0,37.17,37.17,0,0,0-9-.53c-8.38.47-20,3.66-27.7,16.21-5.73,9.31-5.55,21.06.46,31.44C60.83,641.62,75,649,91.3,648.51c12.6-.38,20.73-3.38,24.56-8.88a13.65,13.65,0,0,0,1.85-10.93,1.38,1.38,0,0,1,1-1.74,13.1,13.1,0,0,0,7.25-6.3c2.86-5.21,2.89-12.47.09-21.57-5.23-17-20.89-18.7-29.77-18.21a40.6,40.6,0,0,0-6,.75Z"/><path d="M112.11,601.36a1.37,1.37,0,0,1,1,2.44c-.12.11-12.83,10.57-20.32,20.48-1.8,2.37-.91,3.64-.08,4.38,4.36,3.9,21.55,4,31.19-5.12a1.38,1.38,0,1,1,1.89,2c-10.54,10-29.22,10.28-34.92,5.17-2.43-2.17-2.53-5.12-.29-8.09,7.7-10.19,20.25-20.52,20.79-21A1.27,1.27,0,0,1,112.11,601.36Z"/><path d="M92.64,581.31l-7.26-2.06c34.24-120.74,67.85-135.7,69.26-136.28l2.91,6.95C157.24,450.07,125.49,465.47,92.64,581.31Z"/><path d="M371.41,995c1.74,0,3.27-.87,3.56-2.09,17.21-73.29-7.84-203.79-8.1-205.1s-2.12-2.29-4.05-2.12-3.36,1.43-3.1,2.78,25.17,131.08,8.12,203.66c-.31,1.36,1,2.62,3,2.84A5.63,5.63,0,0,0,371.41,995Z"/><path d="M145.18,950.39c1.86,0,3.46-.85,3.66-2,5.81-34,70.3-179.09,70.95-180.55.53-1.18-.63-2.39-2.6-2.7s-4,.38-4.51,1.57c-2.66,6-65.29,146.84-71.17,181.24-.2,1.21,1.26,2.3,3.29,2.42Z"/><path class="cls-2" d="M409.25,657.06a1.6,1.6,0,0,1-.11-.39l-3.43-30.23-219-9.38c-11.19,30.51-31.34,120.69-33.58,130.78C187,765.39,251.29,786,260.55,789l26.87-74.75a1.22,1.22,0,0,1,1.19-.8,1.18,1.18,0,0,1,1.13.88l23.59,82.45c3.88.78,7.88,1.47,11.9,2.07,62,9.28,88.12.66,96.54-1.47C416.61,748.9,409.67,657.93,409.25,657.06Z"/><polyline class="cls-1" points="331.62 256.42 335.79 266.79 325.44 289.65 296.38 295.92 263.14 285.58 269.32 250.28"/><path class="cls-3" d="M333.7,255.37S312,314.59,267.26,261.7l-88,49.66a55.27,55.27,0,0,0-19.07,17.85C143.32,355,108,423.71,88.54,467.67l79.34,51.24,20.76-55.68L186.87,618S243,681.29,407,631.22l8.05-116.39,16.66,35.27,93.42-20.9s-43.87-182.67-91.67-211.67S333.7,255.37,333.7,255.37Z"/><path class="cls-4" d="M170.75,940l.08,60.22-117,.16s-11-49.82,29.57-52,60.85-.09,60.85-.09Z"/><path class="cls-2" d="M170.83,1000.22s-92.75-2.5-117-27.11c0,0-3.44,16.9.73,27.27Z"/><path class="cls-2" d="M328.74,1048.5v6.23l89.29-.12v-6.23S359.89,1050.54,328.74,1048.5Z"/><path class="cls-4" d="M328.72,1031.06l0,17.44c31.15,2,89.29-.12,89.29-.12l0-24.92-4.89-3.48a23,23,0,0,1-9.68-18.74l0-11-61.25.08v8.1a23,23,0,0,1-6.73,16.31A23.06,23.06,0,0,0,328.72,1031.06Z"/><path class="cls-5" d="M360.19,232l-1.13-1.21c.25-.23,24.79-23.22,32.9-37.81l1.44.8C385.17,208.58,361.2,231,360.19,232Z"/><path class="cls-1" d="M230.68,94.89V204s14.55,54.57,65.48,61.84,83.67-69.12,83.67-69.12L376.2,94.89Z"/><path class="cls-5" d="M244.87,231.8c-.16-.26-16-26.05-24.6-32.84l1-1.29c8.83,7,24.33,32.2,25,33.27Z"/><path class="cls-1" d="M387.11,149.46s36.38,3.64,10.91,40-47.29,7.27-47.29,7.27"/><path class="cls-1" d="M216.13,142.19S190.67,204,238,204s-21.83-61.84-21.83-61.84"/><path class="cls-6" d="M256.15,134.91a137.55,137.55,0,0,1,29.1-3.64V120.36s-21.83,0-36.38,7.28"/><path class="cls-6" d="M325.27,131.27V120.36s25.46-3.64,36.38,7.28v7.27"/><path class="cls-6" d="M296.93,168.28l-2.27-2.6c.42-.37,10.47-8.89,29.42-1.38l-1.27,3.21C305.8,160.77,297,168.2,296.93,168.28Z"/><ellipse class="cls-6" cx="267.06" cy="151.28" rx="7.28" ry="12.73"/><ellipse class="cls-6" cx="343.46" cy="151.28" rx="7.28" ry="12.73"/><path class="cls-7" d="M274.34,147.64c-12,0-21.83,7.32-21.83,16.37s9.79,16.37,21.83,16.37,21.82-7.31,21.82-16.37S286.38,147.64,274.34,147.64Zm0,31c-11.1,0-20.12-6.58-20.12-14.66s9-14.66,20.12-14.66,20.11,6.59,20.11,14.66S285.43,178.67,274.34,178.67Z"/><path class="cls-6" d="M274.34,145.93c-13,0-23.54,8.12-23.54,18.08s10.55,18.08,23.54,18.08S297.87,174,297.87,164,287.32,145.93,274.34,145.93Zm0,32.74c-11.1,0-20.12-6.58-20.12-14.66s9-14.66,20.12-14.66,20.11,6.59,20.11,14.66S285.43,178.67,274.34,178.67Z"/><g class="cls-8"><path class="cls-7" d="M294.45,164c0,8.08-9,14.66-20.11,14.66s-20.12-6.58-20.12-14.66,9-14.66,20.12-14.66S294.45,155.94,294.45,164Z"/></g><g class="cls-8"><ellipse class="cls-7" cx="345.28" cy="164.01" rx="21.83" ry="16.37"/></g><path class="cls-6" d="M345.28,182.11c-13,0-23.56-8.12-23.56-18.1s10.57-18.09,23.56-18.09S368.83,154,368.83,164,358.26,182.11,345.28,182.11Zm0-32.74c-11.09,0-20.11,6.57-20.11,14.64s9,14.65,20.11,14.65,20.1-6.57,20.1-14.65S356.36,149.37,345.28,149.37Z"/><path class="cls-7" d="M299.8,187.46s13.64,4.54,18.19,0"/><path class="cls-6" d="M311.14,191.63a42.53,42.53,0,0,1-12-2.13l1.36-4.09c4,1.34,13.27,3.24,16,.52l3,3C317.52,191,314.37,191.63,311.14,191.63Z"/><path class="cls-6" d="M307.8,226.26c-15.57,0-28.63-11.27-29.2-11.77l2.39-2.74c.14.12,13.83,11.9,28.83,10.8,7.38-.53,13.95-4.1,19.52-10.61l2.76,2.37c-6.23,7.27-13.65,11.27-22,11.87C309.3,226.24,308.55,226.26,307.8,226.26Z"/><path class="cls-5" d="M239.64,186.22l5.71,55.64s36.22,26.69,61.42,27,56.9-40,56.9-40,17.38-34.9,4.46-43.12-51.72-10-51.72-10Z"/><rect class="cls-5" x="229.87" y="152.59" width="1.65" height="38.55" transform="translate(-55.55 143.19) rotate(-30.96)"/><rect class="cls-5" x="362.93" y="178.51" width="30.34" height="1.65" transform="translate(36.37 420.89) rotate(-60.63)"/><path class="cls-6" d="M234.32,178.56v-80h142v84s25.33-36.67,25.33-54.85a28.91,28.91,0,0,1,14.55-25.47S398,91.26,394.39,80.34s7.27-40,7.27-43.65-36.38,3.64-98.22-21.83C266.5.09,236.23,37,220.52,62.38a85.38,85.38,0,0,0-12.28,55.16A116.25,116.25,0,0,0,234.32,178.56Z"/></svg>