<svg id="Layer_1" data-name="Layer 1" xmlns="http://www.w3.org/2000/svg" viewBox="0 0 571.11 1080"><defs><style>.cls-1{fill:#ffa68f;}.cls-2{fill:#da0019;}.cls-3{fill:#343d44;}.cls-4{fill:#363d46;}.cls-5{fill:#4a1100;}.cls-6{fill:#fff;}.cls-7{opacity:0.42;}</style></defs><title>Game Models</title><path d="M473.32,637.7l-7.56-.31c4.86-122.14-20.61-145.24-20.87-145.46l4.89-5.76C451,487.16,478.33,511.9,473.32,637.7Z"/><path class="cls-1" d="M469.09,637.85s-26.27-8.67-35.39,13.64S438.81,679,438.81,679s-7.58,18.12,23.35,21.85,50.66-24.19,40.27-45.1S469.09,637.85,469.09,637.85Z"/><path d="M503.55,655.2c4.85,9.75,3.66,21.35-3.19,31C492,698.07,477.68,704,462,702.11l-1.87-.25c-11.07-1.62-18.33-5.36-21.58-11.11a14.68,14.68,0,0,1-1.28-11.08,14.87,14.87,0,0,1-6.37-7.06c-2.48-5.62-1.94-12.89,1.63-21.6,6.77-16.57,22.44-16.9,31.17-15.62a40.79,40.79,0,0,1,5.51,1.18,36.68,36.68,0,0,1,8.64.3C486,638.07,497.09,642.21,503.55,655.2ZM468.69,639a36.74,36.74,0,0,0-5.34-1.17c-8-1.17-22.36-.9-28.49,14.09-3.28,8-3.84,14.61-1.68,19.57a11.86,11.86,0,0,0,6.07,6.3,1.25,1.25,0,0,1,.71.68,1.22,1.22,0,0,1,0,1,12.45,12.45,0,0,0,.79,10c3,5.31,10.16,8.69,21.55,10.07,14.74,1.77,28.2-3.77,36-14.82,6.3-8.93,7.42-19.58,3-28.48-6-12-16.24-15.86-23.81-17a33.07,33.07,0,0,0-8.24-.26,1.28,1.28,0,0,1-.34,0Z"/><path d="M447.28,655.15a1.27,1.27,0,0,0-1.08.36,1.25,1.25,0,0,0,0,1.78c.11.11,10.78,10.63,16.77,20.23,1.43,2.3.52,3.37-.3,4-4.27,3.18-19.86,1.87-27.86-7.19A1.25,1.25,0,1,0,433,676c8.75,9.91,25.66,11.71,31.25,7.54,2.38-1.77,2.71-4.44.92-7.32C459,666.33,448.43,655.93,448,655.5A1.23,1.23,0,0,0,447.28,655.15Z"/><path class="cls-1" d="M80.88,582s29.68-6.92,37.49,18.45-8.33,29.7-8.33,29.7,6.53,20.62-27.77,21.66S29.08,620.3,42.54,598.39,80.88,582,80.88,582Z"/><path d="M71.36,580.09a41,41,0,0,1,9.51.52,44.3,44.3,0,0,1,6.15-.75c9.71-.55,26.87,1.36,32.67,20.21,3,9.91,2.93,17.94-.35,23.86a16.4,16.4,0,0,1-7.68,7.12,16.23,16.23,0,0,1-2.5,12c-4.14,6-12.47,9.37-24.78,10l-2.07.1c-17.39.52-32.53-7.4-40.51-21.2-6.56-11.3-6.72-24.15-.43-34.37C49.73,584.05,62.29,580.59,71.36,580.09Zm9.6,3.32a1.22,1.22,0,0,1-.38,0,37.21,37.21,0,0,0-9.07-.53c-8.41.47-20.05,3.67-27.79,16.26-5.74,9.33-5.56,21.12.47,31.54,7.47,12.9,21.69,20.3,38,19.81,12.64-.39,20.8-3.39,24.64-8.91a13.74,13.74,0,0,0,1.86-11,1.4,1.4,0,0,1,.1-1.08,1.46,1.46,0,0,1,.85-.67,13.06,13.06,0,0,0,7.28-6.31c2.87-5.23,2.9-12.51.09-21.64-5.24-17-21-18.77-29.86-18.27a40.92,40.92,0,0,0-6,.75Z"/><path d="M103.1,603.16a1.38,1.38,0,0,1,1,2.45c-.12.11-12.87,10.6-20.39,20.54-1.8,2.38-.91,3.65-.07,4.4,4.37,3.91,21.61,4,31.28-5.14a1.38,1.38,0,1,1,1.9,2c-10.58,10-29.31,10.31-35,5.19-2.44-2.19-2.54-5.15-.29-8.13,7.72-10.21,20.32-20.58,20.85-21A1.35,1.35,0,0,1,103.1,603.16Z"/><path d="M83.57,583.05,76.29,581c34.34-121.12,68.05-136.12,69.47-136.7l2.92,7C148.36,451.41,116.51,466.86,83.57,583.05Z"/><path d="M363.19,998c1.75,0,3.28-.87,3.57-2.09,17.26-73.52-7.86-204.41-8.12-205.73s-2.13-2.3-4.07-2.12-3.37,1.43-3.1,2.78,25.24,131.49,8.14,204.29c-.32,1.36,1,2.62,3,2.84Z"/><path d="M136.27,953.26c1.87,0,3.47-.85,3.67-2,5.82-34.15,70.52-179.64,71.17-181.1.53-1.18-.64-2.4-2.61-2.71s-4,.39-4.52,1.57c-2.67,6-65.5,147.29-71.39,181.8-.21,1.22,1.26,2.31,3.3,2.43Z"/><path class="cls-2" d="M401.15,659a1.27,1.27,0,0,1-.12-.39l-3.44-30.33-219.66-9.4C166.71,649.51,146.5,740,144.25,750.09c34,17.61,98.46,38.29,107.74,41.24l26.95-75a1.25,1.25,0,0,1,1.2-.81,1.19,1.19,0,0,1,1.13.89l23.66,82.7c3.9.78,7.9,1.48,11.94,2.08,62.15,9.3,88.39.66,96.83-1.48C408.53,751.15,401.57,659.9,401.15,659Z"/><polyline class="cls-1" points="323.28 257.16 327.46 267.57 317.08 290.5 287.93 296.79 254.59 286.42 260.78 251"/><path class="cls-3" d="M325.36,256.12s-21.79,59.39-66.64,6.34l-88.27,49.82a55.29,55.29,0,0,0-19.12,17.9C134.4,356.06,99,425,79.45,469.07L159,520.46l20.83-55.84-1.78,155.27s56.33,63.45,220.81,13.23L407,516.36l16.72,35.39,93.7-21s-44-183.23-91.95-212.33S325.36,256.12,325.36,256.12Z"/><path class="cls-4" d="M161.91,942.84l.09,60.4-117.38.17s-11-50,29.66-52.12,61-.09,61-.09Z"/><path class="cls-2" d="M162,1003.24s-93-2.51-117.37-27.19c0,0-3.45,17,.73,27.35Z"/><path class="cls-2" d="M320.39,1051.67v6.25l89.56-.13v-6.24S351.64,1053.71,320.39,1051.67Z"/><path class="cls-4" d="M320.36,1034.18l0,17.49c31.25,2,89.56-.12,89.56-.12l0-25-4.9-3.49a23.09,23.09,0,0,1-9.71-18.8l0-11-61.45.08,0,8.13a23.23,23.23,0,0,1-1.74,8.85,23.54,23.54,0,0,1-5,7.51A23.13,23.13,0,0,0,320.36,1034.18Z"/><path class="cls-1" d="M378.94,149.88s36.49,3.65,10.94,40.14-47.43,7.3-47.43,7.3"/><path class="cls-1" d="M207.44,142.59s-25.55,62,21.89,62-21.89-62-21.89-62"/><path class="cls-5" d="M225.68,179.08V98.8H368.12V183s25.41-36.79,25.41-55a29,29,0,0,1,14.6-25.54s-18.25-11-21.9-21.9,7.3-40.13,7.3-43.78S357,40.42,295,14.87C258,.05,227.59,37.07,211.84,62.54a85.69,85.69,0,0,0-12.32,55.33A116.74,116.74,0,0,0,225.68,179.08Z"/><path class="cls-1" d="M222,95.15V204.62s14.6,54.73,65.68,62,83.93-69.33,83.93-69.33L368,95.15Z"/><path class="cls-5" d="M247.58,135.29a138,138,0,0,1,29.19-3.65V120.69s-21.9,0-36.49,7.3"/><path class="cls-5" d="M316.9,131.64V120.69s25.55-3.65,36.49,7.3v7.3"/><path class="cls-5" d="M288.48,168.76l-2.28-2.61c.42-.37,10.51-8.91,29.52-1.38L314.44,168C297.37,161.23,288.57,168.68,288.48,168.76Z"/><ellipse class="cls-5" cx="258.52" cy="151.71" rx="7.3" ry="12.77"/><ellipse class="cls-5" cx="335.15" cy="151.71" rx="7.3" ry="12.77"/><path class="cls-6" d="M265.82,148.06c-12.08,0-21.89,7.33-21.89,16.42s9.81,16.42,21.89,16.42,21.89-7.33,21.89-16.42S277.9,148.06,265.82,148.06Zm0,31.12c-11.13,0-20.18-6.6-20.18-14.7s9.05-14.71,20.18-14.71S286,156.38,286,164.48,277,179.18,265.82,179.18Z"/><path class="cls-5" d="M265.82,146.34c-13,0-23.61,8.14-23.61,18.14s10.58,18.13,23.61,18.13,23.61-8.13,23.61-18.13S278.85,146.34,265.82,146.34Zm0,32.84c-11.13,0-20.18-6.6-20.18-14.7s9.05-14.71,20.18-14.71S286,156.38,286,164.48,277,179.18,265.82,179.18Z"/><g class="cls-7"><path class="cls-6" d="M286,164.48c0,8.1-9.05,14.7-20.18,14.7s-20.18-6.6-20.18-14.7,9.05-14.71,20.18-14.71S286,156.38,286,164.48Z"/></g><g class="cls-7"><ellipse class="cls-6" cx="336.97" cy="164.48" rx="21.89" ry="16.42"/></g><path class="cls-5" d="M337,182.63c-13,0-23.62-8.14-23.62-18.15S324,146.33,337,146.33s23.63,8.14,23.63,18.15S350,182.63,337,182.63Zm0-32.84c-11.11,0-20.16,6.59-20.16,14.69s9.05,14.69,20.16,14.69,20.17-6.59,20.17-14.69S348.09,149.79,337,149.79Z"/><path class="cls-6" d="M291.36,188s13.69,4.57,18.25,0"/><path class="cls-5" d="M302.73,192.18a42.74,42.74,0,0,1-12.05-2.13l1.37-4.11c4.05,1.35,13.3,3.25,16,.53l3.06,3.06C309.13,191.53,306,192.18,302.73,192.18Z"/><path class="cls-5" d="M299.38,226.92c-15.61,0-28.71-11.3-29.29-11.81l2.4-2.74c.14.12,13.86,11.93,28.92,10.83,7.4-.54,14-4.12,19.58-10.65l2.77,2.38c-6.25,7.3-13.69,11.3-22.11,11.91C300.89,226.89,300.13,226.92,299.38,226.92Z"/></svg>