<svg id="Layer_1" data-name="Layer 1" xmlns="http://www.w3.org/2000/svg" viewBox="0 0 571.11 616.05"><defs><style>.cls-1{fill:#ffa68f;}.cls-2{fill:#101e9b;}.cls-3{fill:none;stroke:#000;stroke-miterlimit:10;stroke-width:12.61px;}.cls-4{fill:#da0019;}.cls-5{fill:#363d46;}.cls-6{fill:#4a1100;}</style></defs><title>Game Models</title><path class="cls-1" d="M272.13,212.66s5.81-30.9,15.48-27.67,15.51,28.54,15.51,28.54"/><path class="cls-2" d="M207.89,222.83s54.58-48.16,79.72-37.84,53.75,18.11,61.37,34.2"/><path class="cls-3" d="M386.75,216.1s.34,71.72-13.42,103"/><path class="cls-4" d="M359.27,195.11c5.43-95.34,73.53-30,73.53-30-12.06-45.54-63.58-32.67-69.83-21.9C360.06,148.2,359.22,170.6,359.27,195.11Z"/><path class="cls-5" d="M359.27,195.11c0,24.75.9,51.65,1.39,64.84a8,8,0,0,0,8.55,7.62l45.36-3.35a11.72,11.72,0,0,0,9.29-5.78c5.11-8.84,13.14-30.22,11.4-75.86a80,80,0,0,0-2.46-17.46S364.7,99.77,359.27,195.11Z"/><path class="cls-5" d="M359.27,195.11l73.53-30S364.7,99.77,359.27,195.11Z"/><path class="cls-3" d="M81.69,396.26s-40.2-59.9-23.24-97.46"/><path class="cls-3" d="M500.31,406.71s45.67-62,19.39-115.14"/><path class="cls-1" d="M525.05,307.22s30.07,1.31,33-24.75-13.5-27.32-13.5-27.32,2.58-21.21-30.92-16-45.9,40.33-28.83,59.15S525.05,307.22,525.05,307.22Z"/><path d="M483.83,299.24c-8-8.78-10.15-21.29-5.85-33.46,5.24-14.85,18.5-25.3,35.47-28,.7-.1,1.37-.2,2-.28,12.08-1.58,20.79.18,25.89,5.24A16,16,0,0,1,546,254a16.17,16.17,0,0,1,8.76,5.51c4.26,5.15,5.84,12.92,4.68,23.1-2.19,19.36-18.5,24.34-28,25.58a43.2,43.2,0,0,1-6.11.39,40.47,40.47,0,0,1-9.14,2.25C507.25,312,494.42,310.93,483.83,299.24Zm41.27,6.61a38.28,38.28,0,0,0,5.95-.36c8.74-1.14,23.68-5.67,25.66-23.17,1.07-9.38-.29-16.45-4-21a12.88,12.88,0,0,0-8.22-4.8,1.39,1.39,0,0,1-1-.51,1.34,1.34,0,0,1-.3-1,13.54,13.54,0,0,0-3.8-10.3c-4.73-4.66-13.2-6.09-25.55-4.17-15.95,2.5-28.41,12.28-33.32,26.17-3.95,11.21-2,22.69,5.3,30.71,9.81,10.82,21.7,11.8,29.95,10.72a37.19,37.19,0,0,0,8.71-2.16,1.36,1.36,0,0,1,.36-.1Z"/><path class="cls-1" d="M55.54,323.15S87,334.53,98.81,307.86s-5.25-33.47-5.25-33.47,9.79-21.64-27.49-27.22S4,274.71,15.83,300.34,55.54,323.15,55.54,323.15Z"/><path d="M14.46,301c-5.54-12-3.7-25.95,4.91-37.44,10.49-14,28-20.7,46.92-17.88.78.12,1.53.24,2.25.37,13.34,2.34,22,7.1,25.73,14.17a17.78,17.78,0,0,1,1.17,13.45,18,18,0,0,1,7.47,8.75c2.8,6.88,1.9,15.65-2.71,26.07C91.44,328.29,72.48,328.15,62,326.31a48.88,48.88,0,0,1-6.62-1.62A45.09,45.09,0,0,1,44.9,324C35.07,322.31,21.82,316.91,14.46,301Zm41.6,20.73a44.46,44.46,0,0,0,6.42,1.59c9.65,1.7,27,1.86,34.94-16.06,4.24-9.6,5.15-17.54,2.7-23.62A14.31,14.31,0,0,0,93,275.81a1.59,1.59,0,0,1-.84-.85,1.49,1.49,0,0,1,0-1.19,15.08,15.08,0,0,0-.62-12.19c-3.47-6.52-12-10.85-25.71-12.9-17.77-2.65-34.23,3.58-44,16.69-7.92,10.58-9.64,23.42-4.59,34.34C24,314.45,36.32,319.44,45.43,321a40.37,40.37,0,0,0,10,.59,1.88,1.88,0,0,1,.41,0Z"/><path class="cls-4" d="M425.7,483.71s139.48-25,67.12-126.7-85.71,113.46-85.71,113.46"/><path class="cls-4" d="M146.39,483.71S6.91,458.73,79.28,357,165,470.47,165,470.47"/><path class="cls-3" d="M215.11,288.86s-23.56-77.31-10.48-132.06"/><path class="cls-1" d="M449.43,350.17s80.68-16.22,27.9,51.38-90.58,34.32-90.58,34.32"/><path class="cls-1" d="M131.22,339.8s-57,21.37-28.49,71.22,78.34,28.49,78.34,28.49"/><path class="cls-6" d="M111.72,423.78S145.46,579.9,280.78,579.9,458.83,404.55,458.83,404.55s42.73-45.25,35.61-62.22S466,308.39,466,291.42q0-.92.06-1.86c1.29-23.41-14.18-44.39-37.22-48.76a228.63,228.63,0,0,1-41.18-11.6c-42.73-17-249.27-50.91-292,84.84C95.6,314,69,395.5,111.72,423.78Z"/><path class="cls-4" d="M255.42,106.32C274.75,12.8,192.11,58.4,192.11,58.4,215.5,17.5,262,43.21,265.22,55.23,266.75,60.79,261.78,82.65,255.42,106.32Z"/><path class="cls-5" d="M255.42,106.32c-6.25,23.41-13.85,48.6-17.81,61.48a8.76,8.76,0,0,1-11.27,5.7L185,159.11a13.32,13.32,0,0,1-8.58-9.5c-2.5-10.47-4.06-33.09,8.85-75a79,79,0,0,1,6.88-16.23S274.75,12.8,255.42,106.32Z"/><path class="cls-5" d="M255.42,106.32,192.11,58.4S274.75,12.8,255.42,106.32Z"/></svg>