<svg id="Layer_1" data-name="Layer 1" xmlns="http://www.w3.org/2000/svg" viewBox="0 0 571.11 616.05"><defs><style>.cls-1{fill:#ffa68f;}.cls-2{fill:none;stroke:#000;stroke-miterlimit:10;stroke-width:12.51px;}.cls-3{fill:#da0019;}.cls-4{fill:#363d46;}.cls-5{fill:#4a1100;}</style></defs><title>Game Models</title><path class="cls-1" d="M275.9,214.66s5.78-30.67,15.38-27.47,15.38,28.34,15.38,28.34"/><path class="cls-2" d="M386,216.79S386.33,288,372.67,319"/><path class="cls-3" d="M358.71,196c5.4-94.62,73-29.76,73-29.76-12-45.2-63.1-32.43-69.31-21.73C359.49,149.41,358.67,171.64,358.71,196Z"/><path class="cls-4" d="M358.71,196c0,24.57.89,51.26,1.39,64.35a7.89,7.89,0,0,0,8.48,7.57l45-3.33a11.61,11.61,0,0,0,9.22-5.74c5.08-8.77,13.05-30,11.32-75.29a79.46,79.46,0,0,0-2.44-17.32S364.11,101.34,358.71,196Z"/><path class="cls-4" d="M358.71,196l73-29.76S364.11,101.34,358.71,196Z"/><path class="cls-2" d="M83.23,395.6s-39.9-59.46-23.06-96.73"/><path class="cls-2" d="M498.69,406S544,344.47,517.94,291.7"/><path class="cls-1" d="M523.24,307.22s29.85,1.3,32.78-24.56-13.4-27.11-13.4-27.11,2.57-21.05-30.68-15.86-45.55,40-28.61,58.7S523.24,307.22,523.24,307.22Z"/><path d="M482.33,299.3c-7.9-8.7-10.07-21.12-5.8-33.2,5.2-14.73,18.36-25.11,35.2-27.75.69-.1,1.37-.2,2-.28,12-1.57,20.63.18,25.69,5.2A15.89,15.89,0,0,1,544,254.42a16,16,0,0,1,8.69,5.47c4.23,5.11,5.8,12.82,4.65,22.92C555.19,302,539,307,529.55,308.2a42.75,42.75,0,0,1-6.07.39,39.81,39.81,0,0,1-9.07,2.22C505.58,312,492.85,310.91,482.33,299.3Zm41,6.57a39.25,39.25,0,0,0,5.9-.36c8.67-1.13,23.5-5.63,25.47-23,1.06-9.31-.29-16.32-4-20.84a12.82,12.82,0,0,0-8.16-4.77,1.4,1.4,0,0,1-.94-.49,1.34,1.34,0,0,1-.29-1,13.45,13.45,0,0,0-3.78-10.22c-4.69-4.63-13.1-6-25.35-4.14-15.84,2.49-28.2,12.19-33.07,26-3.92,11.13-2,22.52,5.26,30.48,9.73,10.73,21.53,11.71,29.72,10.64a36.54,36.54,0,0,0,8.65-2.15,1.06,1.06,0,0,1,.35-.09A1,1,0,0,1,523.3,305.87Z"/><path class="cls-1" d="M57.28,323s31.24,11.29,42.94-15.18S95,274.65,95,274.65s9.71-21.49-27.28-27S6.1,275,17.87,300.4,57.28,323,57.28,323Z"/><path d="M16.5,301c-5.49-11.86-3.67-25.76,4.88-37.15C31.79,250,49.2,243.34,68,246.14l2.23.36c13.24,2.33,21.83,7.06,25.54,14.07a17.68,17.68,0,0,1,1.16,13.34,17.84,17.84,0,0,1,7.4,8.69c2.79,6.83,1.89,15.54-2.68,25.87-8.69,19.67-27.51,19.53-38,17.7a47.36,47.36,0,0,1-6.56-1.61,43.59,43.59,0,0,1-10.36-.65C37,322.2,23.81,316.85,16.5,301Zm41.29,20.58a44.7,44.7,0,0,0,6.38,1.58C73.74,324.88,91,325,98.83,307.25c4.22-9.52,5.12-17.4,2.69-23.43a14.29,14.29,0,0,0-7.07-7.77,1.57,1.57,0,0,1-.84-.84,1.51,1.51,0,0,1,0-1.18,14.92,14.92,0,0,0-.6-12.1c-3.45-6.47-11.9-10.77-25.53-12.81-17.63-2.63-34,3.56-43.71,16.57-7.86,10.5-9.57,23.24-4.55,34.08,6.76,14.63,19,19.58,28,21.17a41,41,0,0,0,9.89.59,1.43,1.43,0,0,1,.41,0A1.17,1.17,0,0,1,57.79,321.62Z"/><path class="cls-3" d="M424.65,482.38s138.42-24.79,66.61-125.74-85.07,112.61-85.07,112.61"/><path class="cls-3" d="M147.44,482.38S9,457.59,80.83,356.64s85.06,112.61,85.06,112.61"/><path class="cls-2" d="M215.64,289s-23.38-76.73-10.4-131.07"/><path class="cls-1" d="M448.2,349.86s80.07-16.11,27.69,51S386,434.91,386,434.91"/><path class="cls-1" d="M132.38,339.56s-56.55,21.21-28.27,70.68,77.75,28.28,77.75,28.28"/><path class="cls-5" d="M113,422.91s33.49,154.94,167.78,154.94,176.71-174,176.71-174,42.41-44.91,35.35-61.75-28.28-33.69-28.28-50.53c0-.6,0-1.21.06-1.84,1.28-23.24-14.07-44-36.94-48.39a226.87,226.87,0,0,1-40.87-11.52C344.43,213,139.45,179.27,97,314,97,314,70.62,394.84,113,422.91Z"/><path class="cls-3" d="M255.65,107.84C274.83,15,192.81,60.28,192.81,60.28c23.21-40.59,69.32-15.07,72.57-3.14C266.89,62.66,262,84.35,255.65,107.84Z"/><path class="cls-4" d="M255.65,107.84c-6.21,23.24-13.75,48.23-17.68,61a8.69,8.69,0,0,1-11.18,5.65l-41.07-14.28a13.2,13.2,0,0,1-8.52-9.42c-2.48-10.39-4-32.84,8.78-74.42a79.94,79.94,0,0,1,6.83-16.11S274.83,15,255.65,107.84Z"/><path class="cls-4" d="M255.65,107.84,192.81,60.28S274.83,15,255.65,107.84Z"/></svg>