<svg id="Layer_1" data-name="Layer 1" xmlns="http://www.w3.org/2000/svg" viewBox="0 0 571.11 616.05"><defs><style>.cls-1{fill:#ffcea3;}.cls-2{fill:#101e9b;}.cls-3{fill:#363d46;}.cls-4{fill:none;stroke-width:15.74px;}.cls-4,.cls-8{stroke:#000;stroke-miterlimit:10;}.cls-5{fill:#da0019;}.cls-6,.cls-8{fill:#ffa68f;}.cls-7{fill:#513834;}.cls-8{stroke-width:2.78px;}</style></defs><title>Game Models</title><polyline class="cls-1" points="267.96 167.04 297.95 122.08 305.1 170.51"/><path class="cls-2" d="M221.22,171.9s55.69-62.36,80-54.56,43.34,54.56,43.34,54.56"/><polygon class="cls-3" points="337.23 186.43 399.93 193.49 376.12 103.55 337.23 186.43"/><path class="cls-4" d="M211.1,241.55s-12.88-89.73-6.44-149"/><path class="cls-4" d="M47.24,340.73c-.31-1.74-9.05-2.15,0-79.71"/><path class="cls-4" d="M504.8,358s23.54-66.27,5.23-121.2"/><path class="cls-5" d="M111.36,424.78s-58.85-12.42-85-26.81V320.81s66.7-19.62,77.16-14.39"/><path class="cls-5" d="M477.93,436.39s42.35-20.06,59.79-27,0-69.76,0-69.76l-59.79-35.37"/><path class="cls-6" d="M162.37,279.61s-200.1,51-57.59,118.91c157,74.83,183.75,69.63,183.75,69.63"/><path class="cls-6" d="M402.09,279.61s200.1,51,57.59,118.91c-157,74.83-183.75,69.63-183.75,69.63"/><path class="cls-7" d="M98.61,523.7s49.56,104.39,249.9,71.7C496.77,571.21,509.58,404.21,470.85,285c-26.19-80.62-102.93-135.14-187.58-130.76q-3.21.17-6.46.43c-77.22,6.26-290.16,144.69-151.81,306a61.46,61.46,0,0,1,10.11,15.77C142,492.6,147.55,521.8,98.61,523.7Z"/><path class="cls-8" d="M477.56,217.85c-1.93,15.75-.37,30.48,12.4,30a70.85,70.85,0,0,0,37.91-12.89,11.63,11.63,0,0,0,4.75-11c-5.47-41.42-25.68-45.93-37.51-44.82a12.79,12.79,0,0,0-11,9.14c-.59,2-1.26,4.33-1.95,6.91C478,202.19,477.56,217.85,477.56,217.85Z"/><path class="cls-8" d="M76.22,247.43c-.69-2.57-1.36-4.91-2-6.91a12.77,12.77,0,0,0-11-9.13c-11.83-1.11-32,3.4-37.51,44.82a11.63,11.63,0,0,0,4.75,11A70.85,70.85,0,0,0,68.4,300.13c12.77.52,14.33-14.21,12.4-30C80.8,270.17,80.38,254.51,76.22,247.43Z"/><polygon class="cls-7" points="98.61 523.7 50.95 394.72 88.11 389.77 159.43 429.36 197.51 533.13 181.33 556.93 98.61 523.7"/><polygon class="cls-3" points="166.7 105.5 239.03 123.11 224.56 14.31 166.7 105.5"/></svg>