<svg id="Layer_1" data-name="Layer 1" xmlns="http://www.w3.org/2000/svg" viewBox="0 0 571.11 1080"><defs><style>.cls-1{fill:none;stroke-width:6.21px;}.cls-1,.cls-10,.cls-7,.cls-9{stroke:#000;stroke-miterlimit:10;}.cls-2{fill:#a0ddc8;}.cls-3{fill:#874631;}.cls-4{fill:#f7a682;}.cls-5{fill:#fff;}.cls-6{fill:#ffe18e;}.cls-7{fill:#ffa68f;stroke-width:2.66px;}.cls-10,.cls-8,.cls-9{fill:#83c7b0;}.cls-9{stroke-width:1.73px;}.cls-10{stroke-width:1.66px;}</style></defs><title>Game Models</title><path class="cls-1" d="M239.57,677.1v344.15"/><path class="cls-1" d="M346.84,665.93c2.23,8.94-55.87,234.65,0,355.32"/><path class="cls-2" d="M189.3,531.1s-47.5,115.35-6.79,169.63H405.06s25.33-133.89-21.71-169.63Z"/><path class="cls-1" d="M364.13,226.91s25.06,12.19,68.62,195.44"/><path class="cls-3" d="M190.37,178.29s23.35,49.16,117.7,33.77S376.6,38.74,330.91,23.35c0,0-19.86-21.85-56.61-18.87C238,7.42,138,72.37,202.43,148.14a31.44,31.44,0,0,1,6.13,10.49C211.09,166.43,211,177.49,190.37,178.29Z"/><path class="cls-4" d="M266.88,191.8l-40.72,37.12S334.17,284,351.3,252l-52.89-58.1"/><path class="cls-4" d="M228.4,153s13.4,40.72,53.13,48.17c30.79,8.44,60.09-48.17,60.09-48.17s23.59-6.58,22.47-25.2-16-5.59-16-5.59,4.84-23.46-6-34.64a80,80,0,0,1-20.86-41s-13.78,26.82-35.75,28.68-67,7.08-65.56,44c0,0-17.5-3.72-13,11.18S228.4,153,228.4,153Z"/><path class="cls-3" d="M231.62,98.33s17.14-6,31.54-4.47V90.14S241.68,90.26,231.62,98.33Z"/><path class="cls-3" d="M305.62,96.84v-6.7s27-1.52,35.26,8.19C340.88,98.33,334.67,93.86,305.62,96.84Z"/><ellipse class="cls-5" cx="247.39" cy="119.01" rx="12.54" ry="14.65" transform="translate(94.68 347.14) rotate(-81.89)"/><ellipse class="cls-5" cx="323.25" cy="118.08" rx="14.65" ry="12.54" transform="matrix(0.97, -0.26, 0.26, 0.97, -19.53, 87.52)"/><circle cx="248.76" cy="117.2" r="10.93"/><circle cx="321.87" cy="116.87" r="11.04"/><circle class="cls-5" cx="256.58" cy="116.87" r="4.35"/><path class="cls-3" d="M279.55,148s6-5.46,11.42,0"/><path class="cls-5" d="M266.88,163.89c7.45.93,12.67,13.4,37.62,0"/><path class="cls-1" d="M206.19,231.65S90.09,326,148.69,438.24"/><path class="cls-6" d="M184.77,214.19s74.79,191.46,0,324.59c0,0,148.08,26.92,207.91,0,0,0-80.77-107.7,4.49-324.59l-27.67-9.72S287.23,277,221.41,214.19Z"/><path class="cls-7" d="M427.59,470.47c1.77,1.79,3.4,3.39,4.82,4.75a12.07,12.07,0,0,0,13.3,2.36c10.13-4.56,24.47-17.51,10.21-53.39a12.35,12.35,0,0,0-10.42-7.78,67,67,0,0,0-36.05,7.19c-10.72,5.53-5.13,18.34,3.79,30.35"/><path class="cls-7" d="M413.24,454s4.25,26.89,19,13.38,1.37-16.18,1.37-16.18"/><path class="cls-7" d="M179,454c1.85-15.08.36-29.2-11.87-28.7a68,68,0,0,0-36.33,12.35,11.1,11.1,0,0,0-4.54,10.56c5.23,39.68,24.6,44,35.93,42.94a12.23,12.23,0,0,0,10.55-8.75c.57-1.91,1.21-4.15,1.87-6.62"/><path class="cls-7" d="M179,454s9.73,25.87-10,21.33-9.32-13.6-9.32-13.6"/><path class="cls-8" d="M277.56,700.73s6.7-27.35,7.45-34.8,6,34.8,6,34.8Z"/><path class="cls-9" d="M227.9,1008.42s-43.05,49.29,0,60.52S256,1008.42,256,1008.42Z"/><path class="cls-10" d="M351.17,1003.56s54.59,30.89,19.24,54.73-44.63-45.8-44.63-45.8Z"/></svg>