<svg id="Layer_1" data-name="Layer 1" xmlns="http://www.w3.org/2000/svg" viewBox="0 0 571.11 587.69"><defs><style>.cls-1{fill:#f7a682;}.cls-2{fill:#101e9b;}.cls-3,.cls-8{fill:#ffa68f;}.cls-4{fill:none;stroke-width:14.94px;}.cls-4,.cls-5,.cls-8{stroke:#000;stroke-miterlimit:10;}.cls-5{fill:#83c7b0;stroke-width:2.63px;}.cls-6{fill:#ffe18e;}.cls-7{fill:#874631;}.cls-8{stroke-width:2.64px;}</style></defs><title>Game Models</title><path class="cls-1" d="M273.09,153.81s9.49-35.36,18.52-34,20.32,40.65,20.32,40.65"/><path class="cls-2" d="M219.79,170.84s52.85-75.19,72.72-67.74,67.3,67.74,67.3,67.74"/><path class="cls-3" d="M276.43,409.69s19.38-28.07,27.06-22.06,20.77,29.13,20.77,29.13"/><path class="cls-4" d="M214.92,227.41S202.7,142.28,208.81,86"/><path class="cls-5" d="M396.6,200.68s65.39-74.87,0-91.93S354,200.68,354,200.68Z"/><path class="cls-4" d="M59.45,321.5c-.3-1.64-8.59-2,0-75.61"/><path class="cls-4" d="M493.57,337.9s22.33-62.87,5-115"/><path class="cls-6" d="M120.29,401.25s-55.84-11.78-80.66-25.43V302.61S102.91,284,112.84,289"/><path class="cls-6" d="M468.07,412.26s40.19-19,56.73-25.64,0-66.18,0-66.18l-56.73-33.57"/><path class="cls-3" d="M168.68,263.52S-21.17,311.91,114,376.34c149,71,174.34,66.06,174.34,66.06"/><path class="cls-3" d="M396.12,263.52S586,311.91,450.76,376.34c-149,71-174.33,66.06-174.33,66.06"/><path class="cls-7" d="M108.19,495.1s47,99,237.1,68C486,540.18,498.1,381.74,461.35,268.62c-24.84-76.49-97.65-128.22-178-124.07-2,.11-4.08.24-6.13.41C204,150.9,2,282.24,133.22,435.24a58.57,58.57,0,0,1,9.59,15C149.4,465.6,154.62,493.3,108.19,495.1Z"/><path class="cls-8" d="M467.73,204.93c-1.84,14.94-.36,28.91,11.75,28.42a67.16,67.16,0,0,0,36-12.23A11,11,0,0,0,520,210.66c-5.19-39.3-24.36-43.58-35.59-42.53a12.15,12.15,0,0,0-10.45,8.67c-.56,1.89-1.2,4.11-1.85,6.55C468.12,190.07,467.73,204.93,467.73,204.93Z"/><path class="cls-8" d="M86.94,233c-.65-2.44-1.29-4.66-1.85-6.55a12.14,12.14,0,0,0-10.45-8.67c-11.22-1.05-30.4,3.23-35.59,42.53a11,11,0,0,0,4.51,10.46,67.28,67.28,0,0,0,36,12.23c12.12.49,13.59-13.49,11.76-28.43C91.29,254.56,90.89,239.7,86.94,233Z"/><path class="cls-5" d="M218.85,112.29a20,20,0,0,0,16.05-8.09c14.7-19.83,45.76-70.23-6.41-83.84C179.8,7.65,180,64.85,183.24,94.89a19.48,19.48,0,0,0,19.36,17.4Z"/></svg>