<svg id="Layer_1" data-name="Layer 1" xmlns="http://www.w3.org/2000/svg" viewBox="0 0 571.11 587.69"><defs><style>.cls-1{fill:#f7a682;}.cls-2{fill:none;stroke-width:15.08px;}.cls-2,.cls-3,.cls-7{stroke:#000;stroke-miterlimit:10;}.cls-3{fill:#83c7b0;stroke-width:2.66px;}.cls-4{fill:#ffe18e;}.cls-5,.cls-7{fill:#ffa68f;}.cls-6{fill:#874631;}.cls-7{stroke-width:2.66px;}</style></defs><title>Game Models</title><path class="cls-1" d="M275.47,150.1s9.58-35.7,18.7-34.34,20.52,41.05,20.52,41.05"/><path class="cls-2" d="M214.23,226.77s-12.34-86-6.17-142.78"/><path class="cls-3" d="M397.68,199.77s66-75.6,0-92.82-43.06,92.82-43.06,92.82Z"/><path class="cls-2" d="M57.25,321.77c-.3-1.66-8.67-2,0-76.35"/><path class="cls-2" d="M495.59,338.33s22.55-63.48,5-116.1"/><path class="cls-4" d="M118.68,402.3S62.3,390.4,37.24,376.61V302.69s63.9-18.79,73.92-13.78"/><path class="cls-4" d="M469.85,413.42s40.58-19.21,57.28-25.9,0-66.82,0-66.82l-57.28-33.89"/><path class="cls-5" d="M167.54,263.22s-191.7,48.87-55.17,113.92c150.45,71.69,176,66.7,176,66.7"/><path class="cls-5" d="M397.2,263.22s191.7,48.87,55.17,113.92c-150.45,71.69-176,66.7-176,66.7"/><path class="cls-6" d="M106.46,497.06s47.48,100,239.41,68.69c142-23.17,154.3-183.16,117.2-297.38C438,191.14,364.46,138.9,283.36,143.1c-2,.11-4.11.24-6.18.41-74,6-278,138.62-145.44,293.11a59,59,0,0,1,9.68,15.11C148.07,467.27,153.35,495.25,106.46,497.06Z"/><path class="cls-7" d="M469.5,204.06c-1.85,15.08-.36,29.2,11.87,28.7a67.89,67.89,0,0,0,36.32-12.35,11.11,11.11,0,0,0,4.55-10.56c-5.23-39.68-24.6-44-35.93-42.94a12.23,12.23,0,0,0-10.55,8.75c-.57,1.91-1.22,4.15-1.87,6.62C469.9,189.05,469.5,204.06,469.5,204.06Z"/><path class="cls-7" d="M85,232.4c-.66-2.47-1.3-4.71-1.87-6.62A12.26,12.26,0,0,0,72.58,217C61.25,216,41.89,220.29,36.65,260a11.13,11.13,0,0,0,4.55,10.56,67.84,67.84,0,0,0,36.32,12.35c12.24.5,13.72-13.61,11.87-28.7C89.39,254.18,89,239.18,85,232.4Z"/><path class="cls-3" d="M218.2,110.52a20.14,20.14,0,0,0,16.2-8.17c14.85-20,46.21-70.92-6.46-84.66C178.77,4.87,179,62.62,182.25,93a19.67,19.67,0,0,0,19.54,17.57Z"/></svg>