<svg id="Layer_1" data-name="Layer 1" xmlns="http://www.w3.org/2000/svg" viewBox="0 0 1441.44 1080"><defs><style>.cls-1,.cls-6{fill:#fff;stroke-miterlimit:10;}.cls-1{stroke:#000;}.cls-1,.cls-3{opacity:0.5;}.cls-2,.cls-3{fill:#ff0;}.cls-4{fill:#343d44;}.cls-5{fill:#1b89ce;}.cls-6{font-size:69.94px;stroke:#343d44;stroke-width:5.9px;font-family:Poppins-BlackItalic, Poppins;font-weight:800;font-style:italic;}</style></defs><title>Game Models</title><rect class="cls-1" width="1441.44" height="1080"/><polygon class="cls-2" points="1230.11 368.29 1248.52 424.96 1308.11 424.96 1259.9 459.98 1278.31 516.64 1230.11 481.62 1181.91 516.64 1200.32 459.98 1152.12 424.96 1211.7 424.96 1230.11 368.29"/><polygon class="cls-2" points="224.32 368.29 242.73 424.96 302.31 424.96 254.11 459.98 272.52 516.64 224.32 481.62 176.12 516.64 194.53 459.98 146.33 424.96 205.91 424.96 224.32 368.29"/><rect class="cls-3" x="289.32" y="345.24" width="862.8" height="194.45"/><path class="cls-4" d="M428.42,389.69,372,471.2l-6.28,35.55H329l6.28-35.55-27.61-81.51h42l11.41,41.5,26-41.5Z"/><path class="cls-4" d="M447.27,501.79a42.52,42.52,0,0,1-17.37-17.28A52.23,52.23,0,0,1,423.79,459q0-21,8.68-37.12a62.77,62.77,0,0,1,24.3-25.14q15.63-9,36-9,15.21,0,26.54,6a42.22,42.22,0,0,1,17.44,17q6.12,11,6.12,25.38,0,20.84-8.68,37.2a62.62,62.62,0,0,1-24.47,25.47q-15.79,9.09-36.3,9.09Q458.51,507.91,447.27,501.79ZM494,469.14a28.78,28.78,0,0,0,9.67-12.07A40.14,40.14,0,0,0,507,440.78q0-9.09-4.88-14.14t-14-5a25.84,25.84,0,0,0-15.05,4.46,28.53,28.53,0,0,0-9.84,12,39.22,39.22,0,0,0-3.39,16.29q0,9.09,4.88,14.22t14.3,5.12A25.11,25.11,0,0,0,494,469.14Z"/><path class="cls-4" d="M602.86,389.69l-11.57,66a29.65,29.65,0,0,0-.5,5.46c0,3.75,1,6.69,3,8.84s5.12,3.23,9.42,3.23q7.93,0,12.57-4.71t6.12-12.82l11.57-66H670l-11.57,66q-3,17.2-11.82,28.94a55.29,55.29,0,0,1-21.66,17.52,67.74,67.74,0,0,1-28.2,5.79q-19.68,0-31.41-10.33t-11.74-29.52a68.54,68.54,0,0,1,1.15-12.4l11.58-66Z"/><path class="cls-4" d="M882.63,389.69,835.18,506.75H789.54l-1.82-66.47-25.3,66.47H716.79l-6.12-117.06h39.52l-2.32,73.74,28.77-73.74h40l2.81,73.74,23.64-73.74Z"/><path class="cls-4" d="M932.57,389.69,911.9,506.75H875.19l20.67-117.06Z"/><path class="cls-4" d="M1040.71,506.75H1004l-28.44-58.86-10.42,58.86H928.43L949.1,389.69h36.71l28.28,59.85,10.58-59.85h36.71Z"/><path class="cls-4" d="M1073,503.94a13.41,13.41,0,0,1-4.88-10.74,19.33,19.33,0,0,1,3.23-10.75,22.51,22.51,0,0,1,8.93-7.86A27.66,27.66,0,0,1,1093,471.7q8.43,0,13.23,4.22a13.78,13.78,0,0,1,4.79,10.83,19.32,19.32,0,0,1-3.14,10.66,22.32,22.32,0,0,1-8.76,7.77,27.06,27.06,0,0,1-12.57,2.9Q1077.92,508.08,1073,503.94Zm55.64-122-18,78.38h-31.42l9.43-78.38Z"/><path class="cls-5" d="M433.47,384.63l-56.38,81.52L370.8,501.7H334.1l6.28-35.55-27.61-81.52h42l11.4,41.5,26-41.5Z"/><path class="cls-5" d="M452.32,496.74A42.61,42.61,0,0,1,435,479.46a52.27,52.27,0,0,1-6.12-25.55q0-21,8.68-37.12a62.76,62.76,0,0,1,24.31-25.13q15.63-9,36-9,15.21,0,26.54,6a42.31,42.31,0,0,1,17.45,17q6.11,11,6.12,25.38,0,20.84-8.69,37.21a62.53,62.53,0,0,1-24.47,25.46q-15.8,9.11-36.29,9.1Q463.57,502.86,452.32,496.74ZM499,464.08A28.66,28.66,0,0,0,508.71,452a40.06,40.06,0,0,0,3.3-16.29q0-9.09-4.87-14.13t-14-5a25.74,25.74,0,0,0-15,4.47,28.4,28.4,0,0,0-9.84,12,39.14,39.14,0,0,0-3.39,16.28q0,9.11,4.88,14.22t14.3,5.13A25.07,25.07,0,0,0,499,464.08Z"/><path class="cls-5" d="M607.92,384.63l-11.58,66a29.54,29.54,0,0,0-.49,5.45q0,5.63,3,8.85t9.43,3.22q7.93,0,12.56-4.71t6.12-12.81l11.58-66h36.54l-11.57,66q-3,17.19-11.83,28.93A55.41,55.41,0,0,1,630,497.07a67.66,67.66,0,0,1-28.19,5.79q-19.68,0-31.42-10.34T558.64,463a68.49,68.49,0,0,1,1.16-12.4l11.57-66Z"/><path class="cls-5" d="M887.69,384.63,840.23,501.7H794.6l-1.82-66.47-25.3,66.47H721.84l-6.12-117.07h39.52l-2.31,73.75,28.77-73.75h40l2.82,73.75,23.64-73.75Z"/><path class="cls-5" d="M937.62,384.63,917,501.7h-36.7l20.67-117.07Z"/><path class="cls-5" d="M1045.76,501.7h-36.7l-28.45-58.87L970.2,501.7H933.49l20.67-117.07h36.71l28.27,59.86,10.58-59.86h36.71Z"/><path class="cls-5" d="M1078.09,498.89a13.44,13.44,0,0,1-4.88-10.75,19.36,19.36,0,0,1,3.23-10.75,22.46,22.46,0,0,1,8.92-7.85,27.57,27.57,0,0,1,12.65-2.9c5.63,0,10,1.41,13.23,4.22a13.76,13.76,0,0,1,4.8,10.83,19.28,19.28,0,0,1-3.15,10.67,22.26,22.26,0,0,1-8.76,7.77,27.18,27.18,0,0,1-12.57,2.89Q1083,503,1078.09,498.89Zm55.64-122-18,78.37h-31.42l9.42-78.37Z"/><path class="cls-4" d="M893.82,680.55l-65.24,65.24a8.34,8.34,0,0,1-11.77,0l-30.56-30.36-35.12-34.88A8.33,8.33,0,0,1,757,666.32h32.16a86.59,86.59,0,0,0-170.91,19.91c.15,46.25,37.44,84.74,83.68,86.25a86.22,86.22,0,0,0,53.89-16.56,11.4,11.4,0,0,1,14.94,1.34l27,28.06a11.48,11.48,0,0,1-1.16,16.95,147.47,147.47,0,0,1-89.19,31.82c-81.58,1.4-149.56-64.38-150.73-146a148.16,148.16,0,0,1,295-21.8h36.25A8.33,8.33,0,0,1,893.82,680.55Z"/><path class="cls-5" d="M901.22,670.68,836,735.93a8.35,8.35,0,0,1-11.77,0l-30.56-30.37-35.12-34.87a8.34,8.34,0,0,1,5.87-14.26h32.16a86.59,86.59,0,0,0-170.91,19.91c.14,46.26,37.44,84.75,83.68,86.25a86.18,86.18,0,0,0,53.89-16.56,11.42,11.42,0,0,1,14.94,1.34l27,28.07A11.47,11.47,0,0,1,804,792.4a147.48,147.48,0,0,1-89.19,31.83c-81.58,1.4-149.57-64.39-150.73-146a148.16,148.16,0,0,1,295-21.81h36.25A8.34,8.34,0,0,1,901.22,670.68Z"/><text class="cls-6" transform="translate(928.43 952.66)">Continue</text></svg>