<svg id="Layer_1" data-name="Layer 1" xmlns="http://www.w3.org/2000/svg" viewBox="0 0 1441.44 1080"><defs><style>.cls-1,.cls-2{fill:#fff;}.cls-13,.cls-18,.cls-2,.cls-20,.cls-21{stroke:#000;}.cls-13,.cls-18,.cls-2,.cls-20,.cls-21,.cls-3{stroke-miterlimit:10;}.cls-2{opacity:0.5;}.cls-3{font-size:124.43px;fill:#da0019;stroke:#03243f;stroke-width:2.17px;font-family:Poppins-BlackItalic, Poppins;font-weight:800;font-style:italic;}.cls-4{fill:#e2e5e6;}.cls-5{fill:#1b89ce;}.cls-18,.cls-6{fill:#ffa68f;}.cls-7{fill:#343d44;}.cls-8{fill:#4a1100;}.cls-9{fill:#cd7f50;}.cls-10{fill:#fffdfb;}.cls-11{fill:#363d46;}.cls-12{fill:#158ecc;}.cls-13{fill:none;stroke-width:3.28px;}.cls-14{fill:#a0ddc8;}.cls-15{fill:#874631;}.cls-16{fill:#f7a682;}.cls-17{fill:#ffe18e;}.cls-18{stroke-width:1.41px;}.cls-19,.cls-20,.cls-21{fill:#83c7b0;}.cls-20{stroke-width:0.92px;}.cls-21{stroke-width:0.88px;}</style></defs><title>Game Models</title><circle class="cls-1" cx="131.11" cy="558.59" r="2.1"/><rect class="cls-2" width="1441.44" height="1080"/><circle class="cls-1" cx="154.15" cy="558.59" r="2.1"/><text class="cls-3" transform="translate(121.78 325)">PICK YOUR PLAYER</text><rect class="cls-1" y="863.37" width="1441.44" height="216.63"/><ellipse class="cls-4" cx="592.63" cy="959.29" rx="121.58" ry="5.69" transform="translate(-130.56 94.16) rotate(-8.19)"/><path d="M517.88,941a1.83,1.83,0,0,1-1.81-1.54c-8.73-54.37,4-151.16,4.18-152.13a1.84,1.84,0,0,1,3.64.48c-.13,1-12.84,97.24-4.2,151.06a1.84,1.84,0,0,1-1.52,2.11Z"/><path d="M630.71,929.29a1.85,1.85,0,0,1-1.82-1.65C626,899.37,593.94,779,593.62,777.8a1.83,1.83,0,1,1,3.54-.95c1.32,5,32.47,121.86,35.38,150.41a1.85,1.85,0,0,1-1.64,2Z"/><path class="cls-5" d="M493,822c4.2,1.06,17.23,5.36,48.11.74,2-.3,4-.65,5.93-1l11.75-41.08a.59.59,0,0,1,.56-.44.61.61,0,0,1,.6.4l13.39,37.25c4.61-1.47,36.63-11.74,53.52-20.49-1.12-5-11.16-50-16.73-65.17L501,736.88,499.26,752a.59.59,0,0,1-.05.19C499,752.58,495.54,797.91,493,822Z"/><path d="M449.64,719.75l-4.11-.44c7.36-68.5,24.16-79.7,24.87-80.14l2.22,3.49C472.46,642.77,456.71,654,449.64,719.75Z"/><path d="M659.76,696.25c-6.88-65.73-22.6-77-22.76-77.15l2.23-3.49c.71.44,17.48,11.69,24.64,80.21Z"/><polyline class="cls-6" points="537.89 522.02 535.82 527.19 540.97 538.58 555.46 541.71 572.02 536.56 568.94 518.96"/><path class="cls-7" d="M536.86,521.5S547.68,551,570,524.65l43.85,24.75a27.55,27.55,0,0,1,9.5,8.9c8.41,12.85,28.9,45,38.6,66.86L626.7,647.87l-17.56-22.79L610,732.7s-28,31.52-109.7,6.57l-4-88.48L488,668.37,441.47,658s21.85-91,45.68-105.49S536.86,521.5,536.86,521.5Z"/><path class="cls-8" d="M521.38,494.06l-4.08-44.5s34.14,3.15,64.18-17.5c8.29-6.2,6.24-24.83,6.24-24.83l-20.69,0s-52.74-22.84-72.48,29.91C483.11,477.45,521.38,494.06,521.38,494.06Z"/><path class="cls-8" d="M588.65,480.7s3.16-36.21-9.23-51.75l-3.11,3.1Z"/><path class="cls-6" d="M520.33,504.41s12.37,26.92,37.21,23.85c13.28-1.64,21.84-7.14,26.92-11.89a18.4,18.4,0,0,0,5.73-14.75l-1.53-21.95s-7.19-42.44-9.25-47.61c0,0-19.68,17.56-62.11,17.5L521.38,493s-9.28-24.84-20.68-11.41S520.33,504.41,520.33,504.41Z"/><path class="cls-8" d="M531.76,466.14a14.92,14.92,0,0,1,14.5-4.12v-4.14s-11.38-1.05-17.6,4.11Z"/><path class="cls-8" d="M567,456.87s2.07-4.13,13.45-3.08v-4.14s-11.38-1-15.53,4.12Z"/><ellipse class="cls-8" cx="541.06" cy="475.98" rx="3.88" ry="6.72" transform="translate(-129.42 211.86) rotate(-19.84)"/><ellipse class="cls-8" cx="574.18" cy="468.78" rx="3.88" ry="6.72" transform="translate(-62.21 88.72) rotate(-8.38)"/><path class="cls-9" d="M558.64,486.87s8.27,3.11,10.35-3.09C569,483.78,572.08,493.1,558.64,486.87Z"/><path class="cls-10" d="M549.31,497.2s17.59,2.1,27.94-4.1c0,0,5.16,10.36-7.26,17.58S549.31,497.2,549.31,497.2Z"/><path class="cls-6" d="M449.62,718.7s14.91-2.59,18.07,10.22-5,14.49-5,14.49,2.65,10.41-14.39,10-25.48-17.16-18.18-27.64S449.62,718.7,449.62,718.7Z"/><path d="M445,717.47a20,20,0,0,1,4.7.53,21.78,21.78,0,0,1,3.07-.2c4.84,0,13.29,1.44,15.63,11,1.23,5,.95,9-.85,11.83a8.15,8.15,0,0,1-4,3.31,8,8,0,0,1-1.58,5.89c-2.22,2.86-6.45,4.3-12.58,4.29h-1c-8.63-.24-15.92-4.6-19.49-11.67-2.93-5.79-2.64-12.17.76-17.06A18,18,0,0,1,445,717.47Zm4.67,1.92a.58.58,0,0,1-.19,0,19.15,19.15,0,0,0-4.48-.52,16.68,16.68,0,0,0-14.25,7.28c-3.11,4.47-3.35,10.32-.66,15.66,3.34,6.61,10.18,10.68,18.3,10.9,6.28.17,10.41-1.09,12.47-3.72a6.77,6.77,0,0,0,1.23-5.38.7.7,0,0,1,.53-.84,6.49,6.49,0,0,0,3.79-2.93c1.57-2.51,1.79-6.12.66-10.73-2.12-8.6-9.87-9.9-14.3-9.91a19.57,19.57,0,0,0-3,.21Z"/><path d="M460,729.81a.67.67,0,0,1,.55.29.68.68,0,0,1-.15,1,75.09,75.09,0,0,0-10.7,9.61c-1,1.13-.55,1.78-.16,2.17,2.06,2.07,10.61,2.6,15.66-1.66a.68.68,0,0,1,1,.09.67.67,0,0,1-.08,1c-5.53,4.67-14.83,4.28-17.52,1.58-1.15-1.15-1.12-2.62.09-4a74.54,74.54,0,0,1,10.93-9.84A.76.76,0,0,1,460,729.81Z"/><path class="cls-6" d="M661.59,696.24s-14.91-2.63-18.09,10.16,4.93,14.51,4.93,14.51-2.68,10.41,14.36,10,25.54-17.08,18.26-27.59S661.59,696.24,661.59,696.24Z"/><path d="M681.62,702.93c3.39,4.9,3.66,11.28.71,17.06-3.59,7.06-10.89,11.4-19.52,11.61h-1c-6.13,0-10.35-1.47-12.57-4.32a8.07,8.07,0,0,1-1.56-5.9,8.17,8.17,0,0,1-4-3.33c-1.78-2.85-2.06-6.82-.81-11.82,2.37-9.51,10.83-10.92,15.66-10.91a21.21,21.21,0,0,1,3.07.21,20.29,20.29,0,0,1,4.71-.52A18,18,0,0,1,681.62,702.93Zm-20.15-6a21.29,21.29,0,0,0-3-.21c-4.43,0-12.18,1.27-14.32,9.87-1.15,4.6-.94,8.21.62,10.73a6.53,6.53,0,0,0,3.78,2.94.67.67,0,0,1,.44.31.71.71,0,0,1,.09.53,6.76,6.76,0,0,0,1.21,5.38c2.06,2.64,6.18,3.91,12.46,3.76,8.12-.19,15-4.25,18.34-10.85,2.71-5.33,2.48-11.18-.62-15.66a16.64,16.64,0,0,0-14.23-7.31,18.69,18.69,0,0,0-4.48.5.58.58,0,0,1-.19,0Z"/><path d="M651.14,707.32a.69.69,0,0,0-.4,1.24,74.41,74.41,0,0,1,10.66,9.64c1,1.14.55,1.79.16,2.18-2.06,2.06-10.61,2.57-15.66-1.71a.69.69,0,0,0-.89,1.05c5.52,4.68,14.82,4.33,17.52,1.63,1.15-1.15,1.12-2.62-.08-4a74.22,74.22,0,0,0-10.9-9.87A.69.69,0,0,0,651.14,707.32Z"/><path class="cls-11" d="M622.18,919.49l0,30,58.32.08s5.48-24.82-14.74-25.89-30.32,0-30.32,0Z"/><path class="cls-12" d="M622.13,949.5s46.22-1.24,58.31-13.51c0,0,1.72,8.42-.36,13.59Z"/><path class="cls-12" d="M539.33,967v3.11L494.83,970v-3.1S523.8,968,539.33,967Z"/><path class="cls-11" d="M539.34,958.28V967c-15.53,1-44.5-.06-44.5-.06l0-12.42,2.43-1.73a11.49,11.49,0,0,0,4.83-9.34V938l30.52,0v4a11.43,11.43,0,0,0,.86,4.4,11.62,11.62,0,0,0,2.49,3.73A11.51,11.51,0,0,1,539.34,958.28Z"/><ellipse class="cls-4" cx="922.27" cy="961.48" rx="92.37" ry="8.51"/><path class="cls-13" d="M885.81,757.74V939.53"/><path class="cls-13" d="M942.47,751.84c1.18,4.72-29.51,123.95,0,187.69"/><path class="cls-14" d="M859.26,680.62s-25.09,60.93-3.59,89.6H973.23s13.38-70.73-11.47-89.6Z"/><path class="cls-13" d="M951.61,519.93s13.24,6.44,36.25,103.24"/><path class="cls-15" d="M859.82,494.25s12.33,26,62.18,17.83,36.2-91.55,12.06-99.68c0,0-10.49-11.54-29.9-10-19.18,1.56-72,35.87-38,75.89a16.56,16.56,0,0,1,3.24,5.54C870.77,488,870.7,493.82,859.82,494.25Z"/><path class="cls-16" d="M900.24,501.38,878.73,521s57,29.12,66.1,12.2L916.89,502.5"/><path class="cls-16" d="M879.91,480.87S887,502.38,908,506.31c16.26,4.46,31.74-25.44,31.74-25.44s12.46-3.48,11.87-13.32-8.46-2.95-8.46-2.95,2.56-12.39-3.15-18.29a42.4,42.4,0,0,1-11-21.65s-7.28,14.17-18.88,15.15-35.42,3.74-34.63,23.22c0,0-9.25-2-6.89,5.9S879.91,480.87,879.91,480.87Z"/><path class="cls-15" d="M881.61,452s9-3.15,16.66-2.36v-2S886.93,447.75,881.61,452Z"/><path class="cls-15" d="M920.7,451.22v-3.54s14.28-.8,18.63,4.33C939.33,452,936.05,449.65,920.7,451.22Z"/><ellipse class="cls-1" cx="889.94" cy="462.93" rx="6.63" ry="7.74" transform="translate(306.11 1278.68) rotate(-81.89)"/><ellipse class="cls-1" cx="930.01" cy="462.44" rx="7.74" ry="6.63" transform="translate(-87.9 255.98) rotate(-14.97)"/><circle cx="890.67" cy="461.98" r="5.77"/><circle cx="929.29" cy="461.8" r="5.83"/><circle class="cls-1" cx="894.8" cy="461.8" r="2.3"/><path class="cls-15" d="M906.93,478.24s3.15-2.88,6,0"/><path class="cls-1" d="M900.24,486.64c3.93.49,6.69,7.08,19.87,0"/><path class="cls-13" d="M868.18,522.43s-61.33,49.85-30.37,109.13"/><path class="cls-17" d="M856.86,513.21s39.51,101.14,0,171.46c0,0,78.23,14.22,109.83,0,0,0-42.67-56.89,2.37-171.46l-14.62-5.13S911,546.4,876.22,513.21Z"/><path class="cls-18" d="M985.13,648.59c.93.94,1.8,1.79,2.55,2.51a6.38,6.38,0,0,0,7,1.25c5.36-2.42,12.93-9.26,5.4-28.21a6.53,6.53,0,0,0-5.51-4.11,35.41,35.41,0,0,0-19,3.8c-5.66,2.92-2.71,9.69,2,16"/><path class="cls-18" d="M977.55,639.86s2.25,14.2,10,7.07.72-8.55.72-8.55"/><path class="cls-18" d="M853.84,639.88c1-8,.19-15.43-6.27-15.16a35.87,35.87,0,0,0-19.19,6.52,5.86,5.86,0,0,0-2.4,5.58c2.76,21,13,23.24,19,22.68a6.46,6.46,0,0,0,5.57-4.62c.3-1,.64-2.19,1-3.5"/><path class="cls-18" d="M853.83,639.88s5.15,13.66-5.29,11.26-4.93-7.18-4.93-7.18"/><path class="cls-19" d="M905.88,770.22s3.54-14.45,3.93-18.38S913,770.22,913,770.22Z"/><path class="cls-20" d="M879.65,932.76s-22.74,26,0,32,14.83-32,14.83-32Z"/><path class="cls-21" d="M944.76,930.19s28.84,16.31,10.16,28.91-23.57-24.2-23.57-24.2Z"/></svg>