<svg id="Layer_1" data-name="Layer 1" xmlns="http://www.w3.org/2000/svg" viewBox="0 0 1441.44 1080"><defs><style>.cls-1,.cls-4,.cls-5{fill:#fff;}.cls-1{stroke:#000;}.cls-1,.cls-4{stroke-miterlimit:10;}.cls-1,.cls-5{opacity:0.5;}.cls-2{fill:#343d44;}.cls-3,.cls-6{fill:#da0019;}.cls-4{font-size:69.94px;stroke:#770314;stroke-width:5.9px;font-family:Poppins-BlackItalic, Poppins;font-weight:800;font-style:italic;}.cls-6{fill-rule:evenodd;}</style></defs><title>Game Models</title><rect class="cls-1" width="1441.44" height="1080"/><path class="cls-2" d="M884.37,680.55l-65.24,65.24a8.35,8.35,0,0,1-11.78,0L776.8,715.45l-35.12-34.88a8.33,8.33,0,0,1,5.87-14.25h32.16A86.59,86.59,0,0,0,608.8,686.23c.14,46.25,37.44,84.74,83.68,86.25a86.24,86.24,0,0,0,53.89-16.56,11.4,11.4,0,0,1,14.94,1.34l27,28.06a11.48,11.48,0,0,1-1.16,16.95A147.47,147.47,0,0,1,698,834.09c-81.59,1.4-149.57-64.38-150.73-146a148.16,148.16,0,0,1,295-21.8h36.25A8.34,8.34,0,0,1,884.37,680.55Z"/><path class="cls-3" d="M891.77,670.68l-65.25,65.25a8.35,8.35,0,0,1-11.77,0l-30.56-30.37-35.11-34.87A8.34,8.34,0,0,1,755,656.45h32.16A86.59,86.59,0,0,0,616.2,676.36c.14,46.26,37.44,84.75,83.67,86.25a86.14,86.14,0,0,0,53.89-16.56,11.42,11.42,0,0,1,14.94,1.34l27,28.07a11.46,11.46,0,0,1-1.15,16.94,147.51,147.51,0,0,1-89.19,31.83c-81.59,1.4-149.57-64.39-150.73-146a148.16,148.16,0,0,1,295-21.81h36.24A8.34,8.34,0,0,1,891.77,670.68Z"/><text class="cls-4" transform="translate(928.43 952.66)">Continue</text><rect class="cls-5" x="283.75" y="333.49" width="862.8" height="194.45"/><path class="cls-2" d="M439,382.9l-48.18,69.66-5.37,30.38H354.09l5.37-30.38L335.87,382.9h35.88l9.75,35.47,22.19-35.47Z"/><path class="cls-2" d="M455.12,478.7a36.44,36.44,0,0,1-14.84-14.76,44.75,44.75,0,0,1-5.23-21.83q0-18,7.42-31.73a53.66,53.66,0,0,1,20.77-21.47q13.36-7.71,30.74-7.7,13,0,22.67,5.15a36.14,36.14,0,0,1,14.91,14.56,43.9,43.9,0,0,1,5.23,21.69q0,17.81-7.42,31.79a53.53,53.53,0,0,1-20.91,21.76q-13.5,7.77-31,7.77Q464.74,483.93,455.12,478.7ZM495,450.8a24.51,24.51,0,0,0,8.26-10.32,34.23,34.23,0,0,0,2.83-13.92q0-7.77-4.17-12.08T490,410.17A22,22,0,0,0,477.16,414a24.35,24.35,0,0,0-8.41,10.24,33.53,33.53,0,0,0-2.89,13.92q0,7.77,4.17,12.15t12.22,4.38A21.46,21.46,0,0,0,495,450.8Z"/><path class="cls-2" d="M588.08,382.9l-9.89,56.38a24.63,24.63,0,0,0-.43,4.66,10.69,10.69,0,0,0,2.55,7.56c1.69,1.84,4.38,2.76,8.05,2.76q6.78,0,10.74-4a20.48,20.48,0,0,0,5.23-11l9.89-56.38h31.22l-9.89,56.38Q633,454,625.45,464a47.23,47.23,0,0,1-18.51,15,57.8,57.8,0,0,1-24.09,4.95q-16.82,0-26.85-8.83t-10-25.22a58.35,58.35,0,0,1,1-10.6l9.89-56.38Z"/><path class="cls-2" d="M701,459.2h30.24L727,482.94H665.36L683,382.9h31.36Z"/><path class="cls-2" d="M763.56,478.7a36.41,36.41,0,0,1-14.83-14.76,44.64,44.64,0,0,1-5.23-21.83q0-18,7.42-31.73a53.59,53.59,0,0,1,20.77-21.47q13.35-7.71,30.73-7.7,13,0,22.68,5.15A36.14,36.14,0,0,1,840,400.92a43.9,43.9,0,0,1,5.22,21.69q0,17.81-7.41,31.79a53.55,53.55,0,0,1-20.92,21.76q-13.49,7.77-31,7.77Q773.17,483.93,763.56,478.7Zm39.92-27.9a24.53,24.53,0,0,0,8.27-10.32,34.23,34.23,0,0,0,2.82-13.92q0-7.77-4.17-12.08t-11.94-4.31A22,22,0,0,0,785.61,414a24.28,24.28,0,0,0-8.41,10.24,33.54,33.54,0,0,0-2.9,13.92q0,7.77,4.17,12.15t12.22,4.38A21.43,21.43,0,0,0,803.48,450.8Z"/><path class="cls-2" d="M861.84,476.58q-11-7.35-11-21.48c0-.94.09-2.35.28-4.23h33.34c-.28,2.92.17,5.08,1.35,6.5s3.13,2.11,5.86,2.11a6.85,6.85,0,0,0,4.24-1.27,4.29,4.29,0,0,0,1.69-3.67,6.65,6.65,0,0,0-3.32-5.65,65.59,65.59,0,0,0-10.66-5.37,105.44,105.44,0,0,1-13.22-6.5,30.15,30.15,0,0,1-9-8.48q-3.81-5.37-3.81-13.42a31.44,31.44,0,0,1,5.3-18.3,32.74,32.74,0,0,1,14.76-11.66,55.79,55.79,0,0,1,21.62-4,52.39,52.39,0,0,1,19.43,3.39,30.42,30.42,0,0,1,13.42,9.82,24.44,24.44,0,0,1,4.88,15.19c0,.75-.1,2.07-.29,3.95H903a17.44,17.44,0,0,0,.29-2.26,5.46,5.46,0,0,0-1.56-4.16,5.89,5.89,0,0,0-4.24-1.49,5.64,5.64,0,0,0-4,1.41,4.75,4.75,0,0,0-1.56,3.68q0,3.11,3.25,5.44a73.54,73.54,0,0,0,10.32,5.72,121.39,121.39,0,0,1,13.35,7.21,31.72,31.72,0,0,1,9.11,9,23.52,23.52,0,0,1,3.82,13.63A29.25,29.25,0,0,1,927,468.25a32.44,32.44,0,0,1-14.06,11.51q-9.18,4.17-21.76,4.17Q872.79,483.93,861.84,476.58Z"/><path class="cls-2" d="M1035.13,382.9l-4.38,24.87h-26.56l-13.28,75.17H959.54l13.28-75.17H946.54l4.38-24.87Z"/><path class="cls-2" d="M1053.85,480.54a11.51,11.51,0,0,1-4.16-9.19,16.51,16.51,0,0,1,2.75-9.18,19.27,19.27,0,0,1,7.63-6.71,23.53,23.53,0,0,1,10.81-2.48q7.2,0,11.3,3.61a11.74,11.74,0,0,1,4.1,9.25,16.51,16.51,0,0,1-2.68,9.12,19.08,19.08,0,0,1-7.49,6.64,23.21,23.21,0,0,1-10.74,2.47Q1058,484.07,1053.85,480.54Z"/><path class="cls-3" d="M447.17,379.06,399,448.72l-5.37,30.38H362.25l5.37-30.38L344,379.06h35.88l9.75,35.47,22.19-35.47Z"/><path class="cls-3" d="M463.28,474.86a36.44,36.44,0,0,1-14.84-14.76,44.75,44.75,0,0,1-5.23-21.83q0-18,7.42-31.73a53.66,53.66,0,0,1,20.77-21.47q13.37-7.71,30.74-7.7,13,0,22.67,5.15a36.14,36.14,0,0,1,14.91,14.56A43.9,43.9,0,0,1,545,418.77q0,17.81-7.42,31.79a53.59,53.59,0,0,1-20.91,21.76q-13.5,7.77-31,7.77Q472.9,480.09,463.28,474.86ZM503.19,447a24.53,24.53,0,0,0,8.27-10.32,34.23,34.23,0,0,0,2.83-13.92c0-5.18-1.4-9.2-4.17-12.08s-6.76-4.31-11.94-4.31a22,22,0,0,0-12.86,3.82,24.35,24.35,0,0,0-8.41,10.24A33.53,33.53,0,0,0,474,434.31q0,7.77,4.17,12.15t12.22,4.38A21.4,21.4,0,0,0,503.19,447Z"/><path class="cls-3" d="M596.24,379.06l-9.89,56.38a24.63,24.63,0,0,0-.43,4.66,10.69,10.69,0,0,0,2.55,7.56c1.69,1.84,4.38,2.76,8,2.76q6.78,0,10.74-4a20.48,20.48,0,0,0,5.23-10.95l9.89-56.38H653.6l-9.89,56.38q-2.54,14.7-10.1,24.73a47.23,47.23,0,0,1-18.51,15A57.8,57.8,0,0,1,591,480.09q-16.82,0-26.85-8.83t-10-25.22a58.35,58.35,0,0,1,1-10.6L565,379.06Z"/><path class="cls-3" d="M709.13,455.36h30.24l-4.24,23.74H673.52l17.67-100h31.36Z"/><path class="cls-3" d="M771.72,474.86a36.41,36.41,0,0,1-14.83-14.76,44.64,44.64,0,0,1-5.23-21.83q0-18,7.42-31.73a53.59,53.59,0,0,1,20.77-21.47q13.35-7.71,30.73-7.7,13,0,22.68,5.15a36.05,36.05,0,0,1,14.9,14.56,43.8,43.8,0,0,1,5.23,21.69q0,17.81-7.42,31.79a53.46,53.46,0,0,1-20.91,21.76q-13.48,7.77-31,7.77Q781.33,480.09,771.72,474.86ZM811.64,447a24.53,24.53,0,0,0,8.27-10.32,34.23,34.23,0,0,0,2.82-13.92q0-7.77-4.17-12.08t-11.94-4.31a22,22,0,0,0-12.85,3.82,24.28,24.28,0,0,0-8.41,10.24,33.54,33.54,0,0,0-2.9,13.92q0,7.77,4.17,12.15t12.22,4.38A21.43,21.43,0,0,0,811.64,447Z"/><path class="cls-3" d="M870,472.74q-10.95-7.33-11-21.47c0-.95.1-2.36.29-4.24h33.34c-.28,2.92.17,5.08,1.35,6.5s3.13,2.11,5.86,2.11a6.87,6.87,0,0,0,4.24-1.27,4.29,4.29,0,0,0,1.69-3.67,6.68,6.68,0,0,0-3.32-5.65,65.35,65.35,0,0,0-10.67-5.37,105.92,105.92,0,0,1-13.21-6.5,29.91,29.91,0,0,1-9-8.48q-3.81-5.37-3.81-13.42a31.44,31.44,0,0,1,5.3-18.3,32.74,32.74,0,0,1,14.76-11.66,55.79,55.79,0,0,1,21.62-3.95,52.39,52.39,0,0,1,19.43,3.39,30.42,30.42,0,0,1,13.42,9.82,24.43,24.43,0,0,1,4.87,15.19c0,.75-.09,2.07-.28,4H911.18a17.44,17.44,0,0,0,.29-2.26,5.46,5.46,0,0,0-1.56-4.16,5.89,5.89,0,0,0-4.24-1.49,5.64,5.64,0,0,0-3.95,1.41,4.75,4.75,0,0,0-1.56,3.68q0,3.11,3.25,5.44a73.54,73.54,0,0,0,10.32,5.72,121.39,121.39,0,0,1,13.35,7.21,31.72,31.72,0,0,1,9.11,9A23.59,23.59,0,0,1,940,447.87a29.25,29.25,0,0,1-4.88,16.54,32.44,32.44,0,0,1-14.06,11.51q-9.18,4.17-21.76,4.17Q881,480.09,870,472.74Z"/><path class="cls-3" d="M1043.29,379.06l-4.38,24.87h-26.56L999.07,479.1H967.7L981,403.93H954.7l4.38-24.87Z"/><path class="cls-3" d="M1062,476.7a11.48,11.48,0,0,1-4.16-9.19,16.51,16.51,0,0,1,2.75-9.18,19.27,19.27,0,0,1,7.63-6.71,23.53,23.53,0,0,1,10.81-2.48q7.2,0,11.3,3.61a11.77,11.77,0,0,1,4.1,9.25,16.51,16.51,0,0,1-2.68,9.12,19.08,19.08,0,0,1-7.49,6.64,23.24,23.24,0,0,1-10.74,2.47Q1066.18,480.23,1062,476.7Z"/><path class="cls-6" d="M1227.21,504a11.8,11.8,0,0,0,.39,7.74,7.24,7.24,0,0,0,13.46-5.36,14.7,14.7,0,0,0-4.08-5.95c-14.12-12.87,2.89-32.9,11.42-21.86,1.91,2.47.59,4.86,3.34,7.39a4.6,4.6,0,0,0,6.2-6.75c-3-2.76-4.78-1.55-7.06-3.44-12.23-10.12,11.23-21.49,19.83-8.77a11.85,11.85,0,0,0,5.86,5.08,7.24,7.24,0,1,0,5.46-13.41,14.54,14.54,0,0,0-7.12-1.18c-17.6,1.17-21.82-22.78-7.3-20.3,3.08.53,3.72,3.17,7.46,3.17a4.6,4.6,0,0,0,0-9.16c-4.07,0-4.57,2.1-7.53,2.25-13.63.71-11.4-26.42,7.37-25.17a14.69,14.69,0,0,0,7.12-1.19,7.24,7.24,0,1,0-5.46-13.42,11.91,11.91,0,0,0-5.86,5.09c-9.08,13.43-31,.49-19.83-8.77,2.28-1.89,4.06-.68,7.06-3.44a4.6,4.6,0,0,0-6.2-6.74c-2.75,2.52-1.43,4.9-3.34,7.38-7.91,10.22-25.2-9.31-11.42-21.86a14.63,14.63,0,0,0,4.08-5.95,7.24,7.24,0,0,0-13.46-5.36,11.8,11.8,0,0,0-.39,7.74c3.16,14.82-20.41,23.9-19.6,8,.16-3,2.25-3.46,2.25-7.53a4.6,4.6,0,0,0-9.16,0c0,3.73,2.65,4.38,3.18,7.46,2.2,12.9-27.55,10.61-24.87-7.44a11.84,11.84,0,0,0-.88-7.71,7.24,7.24,0,0,0-13.09,6.2,14.59,14.59,0,0,0,4.44,5.68c13.52,10.83,1,31.39-7.8,19.94-1.91-2.47-.58-4.86-3.33-7.38a4.6,4.6,0,0,0-6.2,6.74c3,2.76,4.77,1.55,7.06,3.44,10.43,8.64-10.84,26-20.8,11.28a11.86,11.86,0,0,0-5.86-5.09,7.24,7.24,0,0,0-5.46,13.42,14.64,14.64,0,0,0,7.11,1.18c17.47-1.16,22.15,23.71,7.73,23-3-.16-3.45-2.25-7.52-2.25a4.6,4.6,0,0,0,0,9.16c3.73,0,4.37-2.65,7.45-3.18,12.89-2.2,10.21,20.36-7.66,19.17a14.64,14.64,0,0,0-7.11,1.18,7.24,7.24,0,0,0,5.46,13.42,11.81,11.81,0,0,0,5.86-5.09c9.47-14,33.3.94,20.8,11.28-2.29,1.89-4.07.68-7.06,3.44a4.6,4.6,0,0,0,6.2,6.74c2.75-2.52,1.42-4.91,3.33-7.38,9-11.68,21.93,8.61,7.8,19.94a14.59,14.59,0,0,0-4.44,5.68,7.24,7.24,0,0,0,13.09,6.2,11.82,11.82,0,0,0,.88-7.7c-2.53-17.06,27.63-23.68,24.87-7.45-.53,3.09-3.18,3.73-3.18,7.46a4.6,4.6,0,0,0,9.16,0c0-4.07-2.09-4.56-2.25-7.53-.87-16.68,22.72-6.6,19.6,8Z"/><path class="cls-6" d="M259.53,504a11.8,11.8,0,0,0,.39,7.74,7.24,7.24,0,0,0,13.46-5.36,14.7,14.7,0,0,0-4.08-5.95c-14.12-12.87,2.89-32.9,11.42-21.86,1.91,2.47.59,4.86,3.34,7.39a4.6,4.6,0,0,0,6.2-6.75c-3-2.76-4.78-1.55-7.06-3.44C271,465.69,294.43,454.32,303,467a11.85,11.85,0,0,0,5.86,5.08,7.24,7.24,0,1,0,5.46-13.41,14.54,14.54,0,0,0-7.12-1.18c-17.6,1.17-21.82-22.78-7.3-20.3,3.08.53,3.72,3.17,7.46,3.17a4.6,4.6,0,0,0,0-9.16c-4.07,0-4.57,2.1-7.53,2.25-13.63.71-11.4-26.42,7.37-25.17a14.69,14.69,0,0,0,7.12-1.19,7.24,7.24,0,0,0-5.46-13.42A11.91,11.91,0,0,0,303,398.8c-9.08,13.43-31,.49-19.83-8.77,2.28-1.89,4.06-.68,7.06-3.44a4.6,4.6,0,0,0-6.2-6.74c-2.75,2.52-1.43,4.9-3.34,7.38-7.91,10.22-25.2-9.31-11.42-21.86a14.63,14.63,0,0,0,4.08-5.95,7.24,7.24,0,0,0-13.46-5.36,11.8,11.8,0,0,0-.39,7.74c3.16,14.82-20.41,23.9-19.6,8,.16-3,2.25-3.46,2.25-7.53a4.6,4.6,0,0,0-9.16,0c0,3.73,2.65,4.38,3.18,7.46,2.2,12.9-27.55,10.61-24.87-7.44a11.84,11.84,0,0,0-.88-7.71,7.24,7.24,0,0,0-13.09,6.2,14.59,14.59,0,0,0,4.44,5.68c13.52,10.83,1,31.39-7.8,19.94-1.91-2.47-.58-4.86-3.33-7.38a4.6,4.6,0,0,0-6.2,6.74c3,2.76,4.77,1.55,7.06,3.44,10.43,8.64-10.84,26-20.8,11.28a11.86,11.86,0,0,0-5.86-5.09,7.24,7.24,0,1,0-5.46,13.42,14.64,14.64,0,0,0,7.11,1.18c17.47-1.16,22.15,23.71,7.73,23-3-.16-3.45-2.25-7.52-2.25a4.6,4.6,0,0,0,0,9.16c3.73,0,4.37-2.65,7.45-3.18,12.89-2.2,10.21,20.36-7.66,19.17a14.64,14.64,0,0,0-7.11,1.18,7.24,7.24,0,1,0,5.46,13.42,11.81,11.81,0,0,0,5.86-5.09c9.47-14,33.3.94,20.8,11.28-2.29,1.89-4.07.68-7.06,3.44a4.6,4.6,0,0,0,6.2,6.74c2.75-2.52,1.42-4.91,3.33-7.38,9-11.68,21.93,8.61,7.8,19.94a14.59,14.59,0,0,0-4.44,5.68,7.24,7.24,0,0,0,13.09,6.2,11.82,11.82,0,0,0,.88-7.7c-2.53-17.06,27.63-23.68,24.87-7.45-.53,3.09-3.18,3.73-3.18,7.46a4.6,4.6,0,0,0,9.16,0c0-4.07-2.09-4.56-2.25-7.53-.87-16.68,22.72-6.6,19.6,8Z"/></svg>