<svg id="Layer_1" data-name="Layer 1" xmlns="http://www.w3.org/2000/svg" xmlns:xlink="http://www.w3.org/1999/xlink" viewBox="0 0 505.82 330.75"><defs><style>.cls-1{opacity:0.4;}.cls-2{fill:url(#linear-gradient);}.cls-3{fill:#960427;opacity:0.2;}</style><linearGradient id="linear-gradient" x1="580.15" y1="397.62" x2="232.73" y2="165.46" gradientUnits="userSpaceOnUse"><stop offset="0" stop-color="#da0019"/><stop offset="1" stop-color="#ff0b2e"/></linearGradient></defs><title>Game Animation</title><g class="cls-1"><path class="cls-2" d="M460.89,227.12c8,19.49-13.64,48-28.62,58.05-18.7,12.57-53.84,29.81-75.1,14-11.43,14.52-34.76,24.87-48.62,27.55-30.73,5.94-70.44-3.49-91.56-28a3.73,3.73,0,0,1-.85-2.75c-18.92,10.07-43,13.84-62.16,12.71-24.21-1.42-55.62-8.36-64.91-33.48a43.59,43.59,0,0,1-22.44,3.64C47.15,276.51,25.81,266.61,14.28,250c-17.49-25.18-14.46-75.09,14.1-91.78-22.52-50.43,25-102.16,78.87-88.39A3.4,3.4,0,0,1,109,71c6.56-36.85,47-63.41,82.8-67.76,25-3,49.47.83,70.46,15.27a72.94,72.94,0,0,1,18.54,18.4c27.35-26.21,68.26-29.31,99.67-8,19,12.88,35.26,43.51,32.88,69.16C451.89,86.36,500,121,502.27,160.71,503.82,188.12,486.43,217.85,460.89,227.12Z"/><path class="cls-3" d="M102.73,118.37c-18.91-3.83-31.58,13-28.85,29.07-14.29,3.18-19.59,21.48-17.16,34.16,2.66,13.91,18.37,24.8,32.13,21.15a2.23,2.23,0,0,0,0-4.27c-10.65-3.08-20.07-8-23.73-19.2-3.59-11,3.64-19.08,10.27-26.48a26.74,26.74,0,0,0,3.85,6.6c3.09,3.89,8.87-1.71,5.52-5.53-5-5.72-5.37-13.62-2.3-20.37,3.69-8.12,12.51-9.52,20.27-11.29C104.61,121.78,104.67,118.76,102.73,118.37Z"/><path class="cls-3" d="M249.55,63.16a23.67,23.67,0,0,0-12.08.05c-3.33.77-5.67,3.15-8.19,5.13-6.42-6.82-16.3-11.73-23.63-12.69-16.75-2.18-36,6.23-41.41,23.19-.85,2.66,3,5.2,4.9,2.85,9.2-11.75,19.45-20.55,35.46-18.31,14.89,2.08,17.76,14.81,27.4,22.94,1.1.94,3.1.73,3.45-.91.94-4.38-.23-8.64-2.64-12.52,2.86-1.3,5.65-3.12,8.95-3.52,8.44-1,12.88,4.91,18.83,9.29,1.14.85,2.6-.31,2.65-1.52C263.54,69.89,255.65,65,249.55,63.16Z"/><path class="cls-3" d="M342.4,87.63c8.27-.1,15.74,5.24,20.48,11.55,7.05,9.4,7.93,30.51-.31,39.58a1.86,1.86,0,0,0,1.3,3.14c6.56.31,10-3.85,11.48-9.85a14.5,14.5,0,0,1,4.94.78c4.61,2,4,8.08,2.94,11.9-.88,3.06-2.45,4.91-.93,7.94a2,2,0,0,0,2.17.88c7-1.94,6-14.39,3.64-19.5a12.24,12.24,0,0,0-7.12-6.12,11.66,11.66,0,0,0-4.93-.26c1.05-11.9-3.45-27.72-7.52-32.86-6.76-8.56-15.32-13.06-26.14-14-8.4-.72-22,3.36-24.9,12.2a2.44,2.44,0,0,0,1.71,3l.8.19a2.11,2.11,0,0,0,2.58-1.46l.09-.58a1.62,1.62,0,0,0-1.52-2C328.18,93.07,334.78,87.72,342.4,87.63Z"/><path class="cls-3" d="M393.24,207.51l-3,.9a1.82,1.82,0,0,0,0,3.48c7,2.07,2.23,13.7.21,17.41-2.73,5-8.31,8.43-13.06,11.18-8.39,4.84-24.35-4-33.92-3.83a2.19,2.19,0,0,0-1.1,4.06,58,58,0,0,0,14.22,7.35c-.88,3.7-9,5.6-11.38,6.21-4.34,1.1-6.78-.57-10.56-2.08a1.74,1.74,0,0,0-2.19,1.67c.67,8.41,12.63,8.65,18.35,6.06,3.75-1.7,9.79-6,10.38-10.55,9.3,2.12,18.87,1,27-5.71,10.85-9,17.58-23.16,7.72-35.45A2.68,2.68,0,0,0,393.24,207.51Z"/><path class="cls-3" d="M220.17,239.66a32,32,0,0,1-13,7.48,47.79,47.79,0,0,1-11.24-.4,24.81,24.81,0,0,0,6.35-13.69c.42-2.88-3-4.54-4.74-2-5.92,8.63-14.08,14.46-24.84,14.64-13.27.23-19-12.84-21.65-23.41-.62-2.5-4.59-2.61-5.15,0-5.36,25.13,24.92,38.34,43.34,29.34,3.78,2.87,9.89,4.32,13.42,4.62,9.38.82,18.15-6,20.3-14.93A1.7,1.7,0,0,0,220.17,239.66Z"/></g></svg>