<svg id="Layer_1" data-name="Layer 1" xmlns="http://www.w3.org/2000/svg" viewBox="0 0 571.11 616.05"><defs><style>.cls-1{fill:#e2e5e6;opacity:0.35;}.cls-2{fill:#ff0;}.cls-3{font-size:75.3px;fill:#101e9b;font-family:Nunito-Bold, Nunito;font-weight:700;}.cls-4{letter-spacing:-0.01em;}.cls-5{letter-spacing:0.03em;}.cls-6{letter-spacing:-0.01em;}.cls-7{letter-spacing:0em;}</style></defs><title>Game Models</title><circle class="cls-1" cx="223.54" cy="373.54" r="208.13"/><path class="cls-2" d="M343,54.59l26.73,82.24A29.24,29.24,0,0,0,397.49,157H484c28.33,0,40.11,36.26,17.19,52.91l-70,50.83a29.24,29.24,0,0,0-10.63,32.69l26.72,82.25c8.76,26.94-22.08,49.35-45,32.69l-70-50.82a29.24,29.24,0,0,0-34.38,0l-70,50.82c-22.92,16.66-53.76-5.75-45-32.69l26.72-82.25a29.24,29.24,0,0,0-10.62-32.69l-70-50.83C106.2,193.3,118,157,146.31,157h86.48a29.24,29.24,0,0,0,27.81-20.21l26.73-82.24C296.08,27.65,334.2,27.65,343,54.59Z"/><text class="cls-3" transform="translate(74.59 482.26)">G<tspan class="cls-4" x="55.2" y="0">r</tspan><tspan x="83.28" y="0">oce</tspan><tspan class="cls-5" x="203.31" y="0">r</tspan><tspan x="234.41" y="0">y </tspan><tspan class="cls-6" x="294.43" y="0">S</tspan><tspan class="cls-7" x="341.94" y="0">to</tspan><tspan class="cls-4" x="413.03" y="0">r</tspan><tspan class="cls-7" x="441.11" y="0">e</tspan></text></svg>