<svg id="Layer_1" data-name="Layer 1" xmlns="http://www.w3.org/2000/svg" viewBox="0 0 571.11 616.05"><defs><style>.cls-1{fill:#353432;}.cls-2{fill:#55646b;}.cls-3{fill:#fff;}.cls-3,.cls-4{stroke:#42bbd8;}.cls-3,.cls-4,.cls-5,.cls-6{stroke-miterlimit:10;}.cls-3,.cls-6{stroke-width:9.85px;}.cls-4,.cls-5{fill:none;}.cls-4{stroke-width:5.35px;}.cls-5{stroke:#353432;stroke-width:16.05px;}.cls-6{fill:#3fbbd5;stroke:#3fbbd5;}</style></defs><title>Game Models</title><polyline class="cls-1" points="219.89 128.82 219.89 75.33 358.97 75.33 358.97 128.82"/><polyline class="cls-1" points="269.56 42.47 200.02 42.47 200.02 57.75 269.56 57.75"/><polyline class="cls-2" points="257.34 80.68 257.34 27.18 321.53 27.18 321.53 80.68"/><path class="cls-3" d="M436.11,328.46H135c-1.34-74,9.84-151.82,47.45-215.69H391.07S438.46,180.12,436.11,328.46Z"/><line class="cls-4" x1="436.22" y1="328.46" x2="436.11" y2="328.46"/><line class="cls-4" x1="135" y1="328.46" x2="134.89" y2="328.46"/><line class="cls-5" x1="286.76" y1="99.4" x2="286.76" y2="431.06"/><path class="cls-6" d="M436.11,328.46c-1.07,68.9-12.84,155.23-45,260.4H182.45s-45-123.78-47.45-260.4Z"/></svg>